<svg xmlns="http://www.w3.org/2000/svg" width="21" height="21" viewBox="0 0 21 21">
  <g id="Icon" transform="translate(-2 -2)">
    <path id="Icon-2" data-name="Icon" d="M8.24,20.753a.786.786,0,1,1,.342-1.535A8.927,8.927,0,1,0,10.506,1.572H10.5A8.928,8.928,0,0,0,2.583,14.628l.2.394a2.059,2.059,0,0,1,.142,1.556c-.221.583-.4,1.15-.557,1.714.59-.177,1.31-.439,1.831-.629l.213-.077a.786.786,0,0,1,.535,1.479l-.211.076a24.749,24.749,0,0,1-2.563.831.825.825,0,0,1-.187.02,1.267,1.267,0,0,1-.938-.36A1.374,1.374,0,0,1,.7,18.579a.754.754,0,0,1,.02-.155,18.326,18.326,0,0,1,.724-2.357.5.5,0,0,0-.052-.325l-.2-.393A10.5,10.5,0,0,1,10.5,0h.012A10.5,10.5,0,1,1,8.24,20.753ZM13.871,10.5a1.248,1.248,0,1,1,1.248,1.248A1.25,1.25,0,0,1,13.871,10.5Zm-4.623,0A1.248,1.248,0,1,1,10.5,11.747,1.249,1.249,0,0,1,9.247,10.5Zm-4.623,0a1.248,1.248,0,1,1,1.248,1.248A1.249,1.249,0,0,1,4.624,10.5Z" transform="translate(2 2)" fill="#29bcb0"/>
  </g>
</svg>
