<svg xmlns="http://www.w3.org/2000/svg" width="24" height="21" viewBox="0 0 24 21">
  <path id="Icon" d="M6.963,21A6.9,6.9,0,0,1,0,14.18V6.819A6.893,6.893,0,0,1,6.963,0H17.037A6.914,6.914,0,0,1,24,6.819V8.525a.841.841,0,0,1-.85.832l-.011-.021a.86.86,0,0,1-.6-.244.821.821,0,0,1-.248-.588V6.819a5.253,5.253,0,0,0-5.254-5.145H6.963A5.253,5.253,0,0,0,1.709,6.819V14.18a5.253,5.253,0,0,0,5.254,5.145H17.037a5.253,5.253,0,0,0,5.254-5.145.862.862,0,0,1,1.709,0A6.914,6.914,0,0,1,17.037,21Zm2.887-9.356L4.9,7.766a.832.832,0,0,1-.128-1.175.851.851,0,0,1,1.189-.124l4.99,3.867a1.747,1.747,0,0,0,2.122,0l4.936-3.867h.011a.872.872,0,0,1,1.2.124.819.819,0,0,1,.182.616.83.83,0,0,1-.319.56L14.15,11.643a3.486,3.486,0,0,1-4.3,0Z" fill="#29bcb0"/>
</svg>
