<svg xmlns="http://www.w3.org/2000/svg" width="22" height="22" viewBox="0 0 22 22">
  <g id="vuesax_broken_user-square" data-name="vuesax/broken/user-square" transform="translate(-748 -188)">
    <g id="user-square" transform="translate(748 188)">
      <path id="Vector" d="M8.316,5.236h-5.5A10.845,10.845,0,0,1-.257,4.859a.687.687,0,0,1-.49-.717A4.958,4.958,0,0,1,1.294.628,7.075,7.075,0,0,1,5.566-.75,7.075,7.075,0,0,1,9.838.628a4.958,4.958,0,0,1,2.041,3.514.687.687,0,0,1-.49.717A10.845,10.845,0,0,1,8.316,5.236ZM.726,3.685a10.9,10.9,0,0,0,2.09.176h5.5a10.9,10.9,0,0,0,2.09-.176C9.916,1.929,7.916.625,5.566.625S1.215,1.929.726,3.685Z" transform="translate(5.434 15.618)" fill="#29bcb0"/>
      <path id="Vector-2" data-name="Vector" d="M14.733,18.61a.688.688,0,0,1-.685-.63c-.172-2.037-2.344-3.633-4.943-3.633s-4.771,1.6-4.943,3.633a.687.687,0,0,1-.872.6A4.936,4.936,0,0,1,.176,16.266,8.788,8.788,0,0,1-.75,11.854v-5.5c0-2.539.537-4.26,1.691-5.413S3.815-.75,6.354-.75h5.5c2.539,0,4.26.537,5.413,1.691s1.691,2.874,1.691,5.413v5.5a8.788,8.788,0,0,1-.926,4.412,4.936,4.936,0,0,1-3.113,2.318A.687.687,0,0,1,14.733,18.61ZM9.1,12.972a7.075,7.075,0,0,1,4.272,1.378A5.145,5.145,0,0,1,15.258,17c1.621-.751,2.326-2.34,2.326-5.146v-5.5c0-2.151-.409-3.562-1.288-4.441S14.005.625,11.854.625h-5.5c-2.151,0-3.562.409-4.441,1.288S.625,4.2.625,6.354v5.5c0,2.806.7,4.394,2.326,5.146a5.145,5.145,0,0,1,1.882-2.65A7.075,7.075,0,0,1,9.1,12.972Zm0-1.192A3.974,3.974,0,1,1,13.073,7.8,3.978,3.978,0,0,1,9.1,11.781Zm0-6.572A2.6,2.6,0,1,0,11.7,7.8,2.6,2.6,0,0,0,9.1,5.208Z" transform="translate(1.896 1.896)" fill="#29bcb0"/>
      <path id="Vector-3" data-name="Vector" d="M3.219-.75A3.974,3.974,0,1,1-.75,3.219,3.974,3.974,0,0,1,3.219-.75Zm0,6.572a2.6,2.6,0,1,0-2.594-2.6A2.6,2.6,0,0,0,3.219,5.822Z" transform="translate(7.781 6.479)" fill="#29bcb0"/>
      <path id="Vector-4" data-name="Vector" d="M0,0H22V22H0Z" fill="none" opacity="0"/>
    </g>
  </g>
</svg>
