<svg xmlns="http://www.w3.org/2000/svg" width="20" height="20" viewBox="0 0 20 20">
  <g id="vuesax_broken_message-add" data-name="vuesax/broken/message-add" transform="translate(-172 -380)">
    <g id="message-add" transform="translate(172 380)">
      <path id="Vector" d="M11.542,17.167H.708A1.46,1.46,0,0,1-.75,15.708V4.875C-.75,1.2,1.2-.75,4.875-.75h6.667c3.68,0,5.625,1.945,5.625,5.625a.625.625,0,1,1-1.25,0C15.917,1.89,14.526.5,11.542.5H4.875C1.89.5.5,1.89.5,4.875V15.708a.211.211,0,0,0,.208.208H11.542c2.985,0,4.375-1.39,4.375-4.375V8.208a.625.625,0,1,1,1.25,0v3.333C17.167,15.222,15.222,17.167,11.542,17.167Z" transform="translate(1.792 1.792)" fill="#29bcb0"/>
      <path id="Vector-2" data-name="Vector" d="M0,0H.833" transform="translate(12.083 10)" fill="#29bcb0"/>
      <path id="Vector_-_Outline" data-name="Vector - Outline" d="M.708.5H-.125A.625.625,0,0,1-.75-.125.625.625,0,0,1-.125-.75H.708a.625.625,0,0,1,.625.625A.625.625,0,0,1,.708.5Z" transform="translate(12.208 10.125)" fill="#29bcb0"/>
      <path id="Vector-3" data-name="Vector" d="M0,0H2.917" transform="translate(7.083 10)" fill="#29bcb0"/>
      <path id="Vector_-_Outline-2" data-name="Vector - Outline" d="M2.792.5H-.125A.625.625,0,0,1-.75-.125.625.625,0,0,1-.125-.75H2.792a.625.625,0,0,1,.625.625A.625.625,0,0,1,2.792.5Z" transform="translate(7.208 10.125)" fill="#29bcb0"/>
      <path id="Vector-4" data-name="Vector" d="M0,5.833V0" transform="translate(10 7.083)" fill="#29bcb0"/>
      <path id="Vector_-_Outline-3" data-name="Vector - Outline" d="M-.125,6.333A.625.625,0,0,1-.75,5.708V-.125A.625.625,0,0,1-.125-.75.625.625,0,0,1,.5-.125V5.708A.625.625,0,0,1-.125,6.333Z" transform="translate(10.125 7.208)" fill="#29bcb0"/>
      <path id="Vector-5" data-name="Vector" d="M0,0H20V20H0Z" fill="none" opacity="0"/>
    </g>
  </g>
</svg>
