<svg xmlns="http://www.w3.org/2000/svg" width="22" height="22" viewBox="0 0 22 22">
  <g id="vuesax_broken_shopping-bag" data-name="vuesax/broken/shopping-bag" transform="translate(-686 -188)">
    <g id="shopping-bag" transform="translate(686 188)">
      <path id="Vector" d="M11.869,14.833H3.628a4.46,4.46,0,0,1-3.49-1.252A4.463,4.463,0,0,1-.694,9.968q0-.021.006-.041L-.6,9.468A.688.688,0,0,1,.072,8.9H14.678L14,3.255c-.188-1.584-.312-2.63-2.957-2.63h-6.6C1.8.625,1.675,1.671,1.488,3.254L1.194,5.7l-.083.671A.687.687,0,1,1-.253,6.206l.083-.669L.122,3.092A4.8,4.8,0,0,1,1.009.446,4.187,4.187,0,0,1,4.444-.75h6.6a4.187,4.187,0,0,1,3.435,1.2,4.805,4.805,0,0,1,.887,2.647L16.123,9.4a.688.688,0,0,1,.027.193q0,.015,0,.03l.042.346a4.444,4.444,0,0,1-.821,3.61A4.466,4.466,0,0,1,11.869,14.833ZM.656,10.278a3.082,3.082,0,0,0,.51,2.39,3.2,3.2,0,0,0,2.462.791h8.241a3.2,3.2,0,0,0,2.472-.794,3.066,3.066,0,0,0,.5-2.387Z" transform="translate(3.247 6.021)" fill="#29bcb0"/>
      <path id="Vector-2" data-name="Vector" d="M7.271,6.125a.688.688,0,0,1-.687-.687V2.229a1.488,1.488,0,0,0-1.6-1.6H2.229a1.488,1.488,0,0,0-1.6,1.6V5.438a.688.688,0,0,1-.687.688A.688.688,0,0,1-.75,5.438V2.229A2.85,2.85,0,0,1,2.229-.75h2.75A2.85,2.85,0,0,1,7.958,2.229V5.438A.688.688,0,0,1,7.271,6.125Z" transform="translate(7.396 1.896)" fill="#29bcb0"/>
      <path id="Vector-3" data-name="Vector" d="M0,0H22V22H0Z" fill="none" opacity="0"/>
    </g>
  </g>
</svg>
