<svg xmlns="http://www.w3.org/2000/svg" width="22" height="22" viewBox="0 0 22 22">
  <g id="vuesax_broken_teacher" data-name="vuesax/broken/teacher" transform="translate(-172 -252)">
    <g id="teacher" transform="translate(172 252)">
      <path id="Vector" d="M8.59,13.683a4.024,4.024,0,0,1-2.184-.6L.889,9.481a3.6,3.6,0,0,1,0-6.041L2.694,2.259a.687.687,0,1,1,.753,1.149L1.641,4.589a2.23,2.23,0,0,0,0,3.741l5.519,3.6a2.91,2.91,0,0,0,2.859,0l5.492-3.6a2.23,2.23,0,0,0,0-3.733L10.019,1A2.909,2.909,0,0,0,7.162,1,.687.687,0,1,1,6.406-.15a4.255,4.255,0,0,1,4.368,0l5.491,3.6a3.6,3.6,0,0,1,0,6.03l-5.492,3.6A4.023,4.023,0,0,1,8.59,13.683Z" transform="translate(2.428 1.902)" fill="#29bcb0"/>
      <path id="Vector-2" data-name="Vector" d="M5.786,8.79a3.8,3.8,0,0,1-1.137-.158L1.72,7.66A3.8,3.8,0,0,1-.75,4.233l.009-4.3A.687.687,0,0,1-.051-.75a.687.687,0,0,1,.686.688l-.009,4.3A2.459,2.459,0,0,0,2.155,6.356l2.925.971a2.856,2.856,0,0,0,1.423,0l2.922-.97a2.459,2.459,0,0,0,1.528-2.123V-.017A.687.687,0,0,1,11.641-.7a.687.687,0,0,1,.688.687v4.25a3.8,3.8,0,0,1-2.47,3.427l-2.926.971-.006,0A3.864,3.864,0,0,1,5.786,8.79Z" transform="translate(5.21 12.061)" fill="#29bcb0"/>
      <path id="Vector-3" data-name="Vector" d="M-.063,6.119A.687.687,0,0,1-.75,5.432v-5.5A.687.687,0,0,1-.063-.75a.687.687,0,0,1,.687.687v5.5A.687.687,0,0,1-.063,6.119Z" transform="translate(19.682 8.315)" fill="#29bcb0"/>
      <path id="Vector-4" data-name="Vector" d="M0,0H22V22H0Z" fill="none" opacity="0"/>
    </g>
  </g>
</svg>
