<svg xmlns="http://www.w3.org/2000/svg" width="19" height="22" viewBox="0 0 19 22">
  <path id="Icon" d="M6.35,20.48A.813.813,0,0,1,6.466,19.3a.892.892,0,0,1,1.222.111,2.287,2.287,0,0,0,2.146.858,2.261,2.261,0,0,0,1.476-.858h.01a.892.892,0,0,1,1.222-.111.814.814,0,0,1,.116,1.176,4.032,4.032,0,0,1-6.308,0ZM4.513,17.334a5.443,5.443,0,0,1-3.431-1.685,4.408,4.408,0,0,1-1.08-3v-.135a4.532,4.532,0,0,1,.813-2.3l.079-.1a4.168,4.168,0,0,0,.992-1.927V6.211a.855.855,0,0,1,.886-.52.843.843,0,0,1,.75.694V8.369a.482.482,0,0,1,0,.106,5.718,5.718,0,0,1-1.369,2.678,2.726,2.726,0,0,0-.436,1.367v.212a2.776,2.776,0,0,0,.654,1.878,3.748,3.748,0,0,0,2.32,1.078,45.748,45.748,0,0,0,9.6,0,3.752,3.752,0,0,0,2.37-1.127,2.746,2.746,0,0,0,.624-1.82v-.222a2.823,2.823,0,0,0-.426-1.377A5.721,5.721,0,0,1,15.41,8.465a.489.489,0,0,1,0-.107V6.366c-.288-2.908-3.272-4.709-5.87-4.709a6.543,6.543,0,0,0-3.153.8.875.875,0,0,1-.867.006.817.817,0,0,1,.035-1.451A8.241,8.241,0,0,1,9.461,0c3.431,0,7.279,2.369,7.715,6.173V8.157a4.08,4.08,0,0,0,.992,1.926.757.757,0,0,1,.079.106A4.372,4.372,0,0,1,19,12.433l-.03.2a4.471,4.471,0,0,1-1.051,3.014,5.505,5.505,0,0,1-3.491,1.685,46.4,46.4,0,0,1-4.958.266A46.414,46.414,0,0,1,4.513,17.334Z" fill="#3b459c"/>
</svg>
