<svg xmlns="http://www.w3.org/2000/svg" width="17.188" height="24" viewBox="0 0 17.188 24">
  <path id="Icon" d="M12.381,0H4.973C1.917,0,0,2.383,0,6.207V21.988A1.9,1.9,0,0,0,1.759,24a1.6,1.6,0,0,0,.843-.244l6.029-3.739,7.019,3.76a.688.688,0,0,0,.6,0,.841.841,0,0,0,.423-.48.965.965,0,0,0-.343-1.059L9.353,18.514a1.353,1.353,0,0,0-1.463,0L1.852,22.242a.206.206,0,0,1-.222,0,.266.266,0,0,1-.1-.222V6.207C1.537,3.379,2.778,1.769,5,1.769h7.408c2.852,0,3.269,2.648,3.269,4.237v.72H7.658a.731.731,0,0,0-.536.28.955.955,0,0,0-.205.631.82.82,0,0,0,.741.847H15.65v9.267a.775.775,0,1,0,1.537.011h0V6.005C17.188,2.3,15.354,0,12.381,0Z" fill="#200e32"/>
</svg>
