<svg id="Group_145" data-name="Group 145" xmlns="http://www.w3.org/2000/svg" xmlns:xlink="http://www.w3.org/1999/xlink" width="213.15" height="183" viewBox="0 0 213.15 183">
  <defs>
    <linearGradient id="linear-gradient" x1="0.495" y1="0.542" x2="0.422" y2="0.066" gradientUnits="objectBoundingBox">
      <stop offset="0" stop-color="#2975aa"/>
      <stop offset="1" stop-color="#7fffc5"/>
    </linearGradient>
    <linearGradient id="linear-gradient-2" x1="0.553" y1="0.682" x2="0.278" y2="0.095" gradientUnits="objectBoundingBox">
      <stop offset="0.004" stop-color="#1a2350"/>
      <stop offset="1" stop-color="#2b449a"/>
    </linearGradient>
    <linearGradient id="linear-gradient-3" x1="0.769" y1="0.798" x2="0.077" y2="0.028" gradientUnits="objectBoundingBox">
      <stop offset="0" stop-color="#278fbd"/>
      <stop offset="1" stop-color="#7fffc5"/>
    </linearGradient>
    <linearGradient id="linear-gradient-4" x1="0.845" y1="0.977" x2="0.052" y2="-0.133" gradientUnits="objectBoundingBox">
      <stop offset="0.004" stop-color="#f1c06b"/>
      <stop offset="1" stop-color="#7fffc5"/>
    </linearGradient>
    <linearGradient id="linear-gradient-5" x1="-0.932" y1="0.855" x2="0.47" y2="0.542" gradientUnits="objectBoundingBox">
      <stop offset="0" stop-color="#401784"/>
      <stop offset="0.414" stop-color="#4f1ea3"/>
      <stop offset="0.573" stop-color="#4a1c9a"/>
      <stop offset="0.821" stop-color="#401785"/>
      <stop offset="1" stop-color="#361371"/>
    </linearGradient>
    <linearGradient id="linear-gradient-6" x1="0" y1="0.5" x2="1" y2="0.5" xlink:href="#linear-gradient-5"/>
    <linearGradient id="linear-gradient-7" x1="0.5" y1="0.922" x2="0.5" y2="-0.098" gradientUnits="objectBoundingBox">
      <stop offset="0" stop-color="#f3cff7"/>
      <stop offset="0.202" stop-color="#ebc7f6"/>
      <stop offset="0.502" stop-color="#d8b3f4"/>
      <stop offset="0.863" stop-color="#b892f0"/>
      <stop offset="1" stop-color="#ab84ef"/>
    </linearGradient>
    <linearGradient id="linear-gradient-8" y1="0.5" x2="1" y2="0.5" gradientUnits="objectBoundingBox">
      <stop offset="0" stop-color="#293267"/>
      <stop offset="0.999" stop-color="#3b467e"/>
    </linearGradient>
    <linearGradient id="linear-gradient-9" x1="0" y1="0.5" x2="1" y2="0.5" xlink:href="#linear-gradient-8"/>
    <linearGradient id="linear-gradient-10" x1="0" y1="0.5" x2="1" y2="0.5" xlink:href="#linear-gradient-8"/>
    <linearGradient id="linear-gradient-11" x1="-0.009" y1="1.621" x2="0.803" y2="-0.565" gradientUnits="objectBoundingBox">
      <stop offset="0" stop-color="#481c95"/>
      <stop offset="1" stop-color="#7733d6"/>
    </linearGradient>
    <linearGradient id="linear-gradient-12" x1="0" y1="0.5" x2="1" y2="0.5" xlink:href="#linear-gradient-11"/>
    <linearGradient id="linear-gradient-13" x1="0.5" y1="0.417" x2="0.5" y2="1.034" xlink:href="#linear-gradient-11"/>
    <linearGradient id="linear-gradient-14" x1="0.5" y1="-0.137" x2="0.5" y2="0.787" xlink:href="#linear-gradient-11"/>
    <linearGradient id="linear-gradient-15" x1="0.667" y1="0.002" x2="0.075" y2="0.789" gradientUnits="objectBoundingBox">
      <stop offset="0" stop-color="#ffce3d"/>
      <stop offset="1" stop-color="#ffef89"/>
    </linearGradient>
    <linearGradient id="linear-gradient-16" x1="7.164" y1="-1.682" x2="1.822" y2="0.108" xlink:href="#linear-gradient-15"/>
  </defs>
  <ellipse id="Ellipse_3" data-name="Ellipse 3" cx="104.836" cy="5.071" rx="104.836" ry="5.071" transform="translate(0.468 172.858)" fill="#fff" opacity="0.2" style="mix-blend-mode: multiply;isolation: isolate"/>
  <path id="Path_129" data-name="Path 129" d="M85.449,248.168v-4.431l-3.468-.255a11.458,11.458,0,0,0-1.553-3.744L82.7,237.1l-3.133-3.133-2.634,2.273a11.453,11.453,0,0,0-3.744-1.553l-.254-3.468H68.506l-.255,3.468a11.458,11.458,0,0,0-3.744,1.553l-2.633-2.273L58.741,237.1l2.273,2.633a11.466,11.466,0,0,0-1.552,3.745l-3.468.254v4.431l3.468.254a11.453,11.453,0,0,0,1.552,3.744L58.741,254.8l3.133,3.133,2.633-2.273a11.458,11.458,0,0,0,3.744,1.553l.255,3.468h4.431l.254-3.468a11.454,11.454,0,0,0,3.744-1.553l2.634,2.273L82.7,254.8l-2.273-2.634a11.454,11.454,0,0,0,1.553-3.744Zm-6.843-2.215a7.884,7.884,0,1,1-7.884-7.885A7.884,7.884,0,0,1,78.605,245.952Z" transform="translate(-45.139 -151.096)" fill="#fff" opacity="0.3" style="mix-blend-mode: overlay;isolation: isolate"/>
  <path id="Path_130" data-name="Path 130" d="M72.254,215.8v-1.73l-1.355-.1a4.469,4.469,0,0,0-.606-1.462l.888-1.029-1.224-1.224-1.029.888a4.472,4.472,0,0,0-1.462-.606l-.1-1.355h-1.73l-.1,1.355a4.477,4.477,0,0,0-1.462.606l-1.028-.888-1.224,1.224.888,1.029a4.47,4.47,0,0,0-.607,1.462l-1.354.1v1.73l1.354.1a4.476,4.476,0,0,0,.607,1.463l-.888,1.028,1.224,1.224,1.028-.888a4.489,4.489,0,0,0,1.462.607l.1,1.354h1.73l.1-1.354a4.485,4.485,0,0,0,1.462-.607l1.029.888,1.224-1.224-.888-1.028A4.475,4.475,0,0,0,70.9,215.9Zm-2.673-.865a3.079,3.079,0,1,1-3.079-3.079A3.079,3.079,0,0,1,69.582,214.932Z" transform="translate(-47.613 -146.789)" fill="#fff" opacity="0.3" style="mix-blend-mode: overlay;isolation: isolate"/>
  <g id="Group_77" data-name="Group 77" transform="translate(18.359 101.908)">
    <path id="Path_131" data-name="Path 131" d="M84.451,296.965A32.729,32.729,0,0,1,74.625,282.6,55.708,55.708,0,0,1,71.647,265.3a7.464,7.464,0,0,1,.777-4.314c.8-1.249,2.685-1.909,3.815-.947a4.02,4.02,0,0,1,.987,2.947c.364,6.653.481,13.373,1.093,20.006a22.6,22.6,0,0,0,6.452,14.47" transform="translate(-71.633 -259.583)" fill="url(#linear-gradient)"/>
    <g id="Group_76" data-name="Group 76" transform="translate(2.771 2.85)" opacity="0.4" style="mix-blend-mode: multiply;isolation: isolate">
      <path id="Path_132" data-name="Path 132" d="M80.461,290.12a.182.182,0,0,1-.175-.134A81.459,81.459,0,0,1,77.457,265.7a.188.188,0,0,1,.188-.175.182.182,0,0,1,.175.188,81.083,81.083,0,0,0,2.816,24.18.181.181,0,0,1-.127.223A.187.187,0,0,1,80.461,290.12Z" transform="translate(-77.408 -265.523)" fill="#40afbf"/>
    </g>
  </g>
  <g id="Group_79" data-name="Group 79" transform="translate(14.927 112.606)">
    <path id="Path_133" data-name="Path 133" d="M64.833,285.14a7.257,7.257,0,0,1-.252-3.271,2.714,2.714,0,0,1,2.174-2.2,2.757,2.757,0,0,1,2.511,1.548,8.579,8.579,0,0,1,.787,3,96.288,96.288,0,0,0,6.339,23.294c-.592-1.415-2.307-2.726-3.229-3.993a48.139,48.139,0,0,1-3.53-5.768A54.7,54.7,0,0,1,64.833,285.14Z" transform="translate(-64.48 -279.655)" fill="url(#linear-gradient-2)"/>
    <g id="Group_78" data-name="Group 78" transform="translate(2.224 1.959)" opacity="0.5" style="mix-blend-mode: multiply;isolation: isolate">
      <path id="Path_134" data-name="Path 134" d="M75.42,303a.18.18,0,0,1-.162-.1,65.419,65.419,0,0,1-6.14-18.948.181.181,0,0,1,.358-.058,65.082,65.082,0,0,0,6.106,18.843.181.181,0,0,1-.081.243A.176.176,0,0,1,75.42,303Z" transform="translate(-69.115 -283.737)" fill="#40afbf"/>
    </g>
  </g>
  <path id="Path_135" data-name="Path 135" d="M53.061,321.6c-1.524-2.639-1.445-6.077-3.373-8.437-1.573-1.927-4.254-2.813-5.513-4.958-2.168-3.692,1.093-8.642-.537-12.6-1.285-3.121-5.239-4.635-6.181-7.876a4.872,4.872,0,0,1,8.561-4.3c1.666,2.2,1.453,5.723,3.783,7.2,1.526.966,3.658.649,5.071,1.773,1.744,1.386,1.453,4.072,2.239,6.156.914,2.424,3.264,3.939,5.044,5.821a14.861,14.861,0,0,1,4,10.725c-.134,3.075-1.625,8.319-4.552,9.994C58.781,326.712,54.48,324.061,53.061,321.6Z" transform="translate(-35.405 -155.607)" fill="url(#linear-gradient-3)"/>
  <path id="Path_136" data-name="Path 136" d="M47.226,340.026c-1.548-1.1-3.848-.989-5.089-2.428-1.118-1.3-.866-3.248-1.4-4.873a10.278,10.278,0,0,0-2.774-3.8A9.953,9.953,0,0,1,35.22,325.1c-.472-1.513-.02-3.44,1.41-4.124,1.684-.806,3.655.466,4.766,1.966s1.877,3.336,3.421,4.384c1.623,1.1,3.892,1.167,5.219,2.611,1.082,1.178,1.21,2.927,1.894,4.374.866,1.831,2.573,3.088,4.144,4.365,3.471,2.819,5.591,8.188-.066,9.922C49.385,350.623,50.893,342.637,47.226,340.026Z" transform="translate(-34.239 -175.989)" fill="url(#linear-gradient-4)"/>
  <g id="Group_86" data-name="Group 86" transform="translate(3.693 148.407)" opacity="0.5" style="mix-blend-mode: overlay;isolation: isolate">
    <g id="Group_80" data-name="Group 80" transform="translate(0 0)">
      <path id="Path_137" data-name="Path 137" d="M59.3,348.862a.178.178,0,0,1-.133-.059c-6.1-6.579-12.174-13.349-18.056-20.122a.182.182,0,0,1,.274-.238c5.879,6.769,11.952,13.536,18.048,20.113a.182.182,0,0,1-.133.305Z" transform="translate(-41.067 -328.381)" fill="#fff"/>
    </g>
    <g id="Group_81" data-name="Group 81" transform="translate(9.026 6.199)">
      <path id="Path_138" data-name="Path 138" d="M60.193,345.836a.182.182,0,0,1-.181-.176l-.133-4.172a.182.182,0,0,1,.176-.187.187.187,0,0,1,.187.176l.134,4.172a.182.182,0,0,1-.176.187Z" transform="translate(-59.878 -341.301)" fill="#fff"/>
    </g>
    <g id="Group_82" data-name="Group 82" transform="translate(10.715 7.766)">
      <path id="Path_139" data-name="Path 139" d="M63.58,349.262a.181.181,0,0,1-.181-.181v-4.332a.181.181,0,0,1,.363,0v4.332A.181.181,0,0,1,63.58,349.262Z" transform="translate(-63.399 -344.567)" fill="#fff"/>
    </g>
    <g id="Group_83" data-name="Group 83" transform="translate(4.167 7.766)">
      <path id="Path_140" data-name="Path 140" d="M53.058,345.448a.161.161,0,0,1-.03,0l-3.126-.519a.181.181,0,0,1-.149-.209.179.179,0,0,1,.209-.149l3.126.519a.181.181,0,0,1-.029.36Z" transform="translate(-49.751 -344.566)" fill="#fff"/>
    </g>
    <g id="Group_84" data-name="Group 84" transform="translate(3.052 0.662)">
      <path id="Path_141" data-name="Path 141" d="M47.691,333.049a.182.182,0,0,1-.181-.177l-.082-2.926a.182.182,0,0,1,.363-.01l.082,2.926a.182.182,0,0,1-.177.186Z" transform="translate(-47.428 -329.76)" fill="#fff"/>
    </g>
    <g id="Group_85" data-name="Group 85" transform="translate(11.881 16.853)">
      <path id="Path_142" data-name="Path 142" d="M69.92,364.682a.166.166,0,0,1-.037,0l-3.91-.816a.182.182,0,0,1-.141-.215.18.18,0,0,1,.215-.14l3.91.816a.181.181,0,0,1-.037.359Z" transform="translate(-65.828 -363.503)" fill="#fff"/>
    </g>
  </g>
  <g id="Group_92" data-name="Group 92" transform="translate(5.374 129.285)" opacity="0.4" style="mix-blend-mode: multiply;isolation: isolate">
    <g id="Group_87" data-name="Group 87" transform="translate(0.771)">
      <path id="Path_143" data-name="Path 143" d="M65.615,322.638a.182.182,0,0,1-.157-.092L46.2,288.8a.182.182,0,0,1,.316-.18l19.256,33.746a.182.182,0,0,1-.068.248A.185.185,0,0,1,65.615,322.638Z" transform="translate(-46.178 -288.529)" fill="#40afbf"/>
    </g>
    <g id="Group_88" data-name="Group 88" transform="translate(6.147 20.55)">
      <path id="Path_144" data-name="Path 144" d="M64.852,333.366a.164.164,0,0,1-.04,0l-7.289-1.645a.181.181,0,1,1,.08-.354l7.29,1.645a.181.181,0,0,1-.04.358Z" transform="translate(-57.382 -331.358)" fill="#40afbf"/>
    </g>
    <g id="Group_89" data-name="Group 89" transform="translate(10.772 9.488)">
      <path id="Path_145" data-name="Path 145" d="M67.2,316.7h-.016a.181.181,0,0,1-.165-.2l.714-8.039a.185.185,0,0,1,.2-.165.181.181,0,0,1,.165.2l-.714,8.039A.181.181,0,0,1,67.2,316.7Z" transform="translate(-67.021 -308.303)" fill="#40afbf"/>
    </g>
    <g id="Group_90" data-name="Group 90" transform="translate(8.479 8.478)">
      <path id="Path_146" data-name="Path 146" d="M62.423,311.59H62.4a.181.181,0,0,1-.161-.2l.556-5.029a.181.181,0,1,1,.361.039l-.556,5.03A.182.182,0,0,1,62.423,311.59Z" transform="translate(-62.241 -306.197)" fill="#40afbf"/>
    </g>
    <g id="Group_91" data-name="Group 91" transform="translate(0 3.756)">
      <path id="Path_147" data-name="Path 147" d="M48.3,297.834a.162.162,0,0,1-.054-.009L44.7,296.711a.181.181,0,0,1,.108-.346l3.551,1.115a.181.181,0,0,1-.054.355Z" transform="translate(-44.57 -296.357)" fill="#40afbf"/>
    </g>
  </g>
  <path id="Path_148" data-name="Path 148" d="M385.086,276.921a2.318,2.318,0,1,0,2.318,2.317A2.32,2.32,0,0,0,385.086,276.921Zm0,3.9a1.586,1.586,0,1,1,1.586-1.586A1.587,1.587,0,0,1,385.086,280.824Zm4.95,2.33L389,282.12a.729.729,0,0,0-.7-.187l-.343-.343a3.712,3.712,0,1,0-.517.518l.343.343a.728.728,0,0,0,.187.7L389,284.188a.732.732,0,0,0,1.034-1.035Zm-7.929-3.915a2.979,2.979,0,1,1,2.979,2.98A2.982,2.982,0,0,1,382.106,279.238Z" transform="translate(-233.035 -170.442)" fill="#8f50f2" opacity="0.4" style="mix-blend-mode: multiply;isolation: isolate"/>
  <g id="Group_95" data-name="Group 95" transform="translate(158.521 156.512)">
    <path id="Path_149" data-name="Path 149" d="M361.422,348.666v.485h33.122a1.164,1.164,0,0,0,1.164-1.164v-1.55a1.164,1.164,0,0,0-1.164-1.164H361.422v.484h.318v2.91Z" transform="translate(-357.054 -345.272)" fill="#ffd054"/>
    <path id="Rectangle_13" data-name="Rectangle 13" d="M1.455,0H28.4a0,0,0,0,1,0,0V2.91a0,0,0,0,1,0,0H1.455A1.455,1.455,0,0,1,0,1.455v0A1.455,1.455,0,0,1,1.455,0Z" transform="translate(33.089 3.394) rotate(180)" fill="#fff"/>
    <g id="Group_93" data-name="Group 93" transform="translate(2.224 3.878)">
      <path id="Path_150" data-name="Path 150" d="M356.953,358.253v.485H395.9a1.164,1.164,0,0,0,1.165-1.164v-3.054a1.164,1.164,0,0,0-1.165-1.164H356.953v.485h.317v4.413Z" transform="translate(-356.953 -353.355)" fill="#ff647e"/>
      <path id="Path_151" data-name="Path 151" d="M433.157,353.922h-5.145a1.162,1.162,0,0,1,.417.892v3.054a1.161,1.161,0,0,1-.441.912h5.146a1.161,1.161,0,0,0,.441-.912v-3.054A1.161,1.161,0,0,0,433.157,353.922Z" transform="translate(-393.903 -353.65)" fill="#f35370"/>
      <path id="Path_152" data-name="Path 152" d="M357.614,354.365h25.693a.975.975,0,0,1,.975.975V357.8a.975.975,0,0,1-.975.975H357.614Z" transform="translate(-357.297 -353.88)" fill="#fff"/>
    </g>
    <path id="Path_153" data-name="Path 153" d="M359.206,382.692v.512h41.188a1.231,1.231,0,0,0,1.231-1.231v-3.72a1.231,1.231,0,0,0-1.231-1.231H359.206v.512h.336v5.157Z" transform="translate(-355.901 -361.787)" fill="#bab7f6"/>
    <path id="Path_154" data-name="Path 154" d="M439.8,377.622H434.36a1.228,1.228,0,0,1,.44.943v3.72a1.229,1.229,0,0,1-.467.964h5.442a1.229,1.229,0,0,0,.467-.964v-3.72A1.228,1.228,0,0,0,439.8,377.622Z" transform="translate(-394.981 -362.1)" fill="#a39ee9"/>
    <path id="Path_155" data-name="Path 155" d="M359.906,378.09h27.173a1.031,1.031,0,0,1,1.032,1.031v3.095a1.031,1.031,0,0,1-1.032,1.031H359.906Z" transform="translate(-356.266 -362.343)" fill="#fff"/>
    <rect id="Rectangle_14" data-name="Rectangle 14" width="1.355" height="1.778" transform="translate(37.693 2.828) rotate(180)" fill="#fff"/>
    <rect id="Rectangle_15" data-name="Rectangle 15" width="0.374" height="1.778" transform="translate(35.777 2.828) rotate(180)" fill="#fff"/>
    <g id="Group_94" data-name="Group 94" transform="translate(0 9.265)">
      <path id="Path_156" data-name="Path 156" d="M352.319,370.066v.485h38.943a1.164,1.164,0,0,0,1.164-1.164v-3.641a1.164,1.164,0,0,0-1.164-1.164H352.319v.485h.317v5Z" transform="translate(-352.319 -364.581)" fill="#e3e9ff"/>
      <path id="Path_157" data-name="Path 157" d="M352.98,365.591h25.693a.975.975,0,0,1,.975.975v3.05a.975.975,0,0,1-.975.975H352.98Z" transform="translate(-352.663 -365.106)" fill="#fff"/>
      <rect id="Rectangle_16" data-name="Rectangle 16" width="5.126" height="2.87" transform="translate(38.994 4.655) rotate(180)" fill="#bab7f6"/>
    </g>
  </g>
  <g id="Group_104" data-name="Group 104" transform="translate(15.398 93.163)">
    <path id="Path_158" data-name="Path 158" d="M82,218.185l-16.49,79.778a2.177,2.177,0,0,0,2.132,2.618h51.085Z" transform="translate(-65.462 -215.816)" fill="#7733d6"/>
    <path id="Path_159" data-name="Path 159" d="M86.527,218.185l-16.49,79.778a2.178,2.178,0,0,0,2.133,2.618h51.085Z" transform="translate(-67.818 -215.816)" fill="url(#linear-gradient-5)"/>
    <g id="Group_96" data-name="Group 96" transform="translate(7.662 31.222)">
      <path id="Path_160" data-name="Path 160" d="M116.3,328.132l-.59-1.323H81.7l-.273,1.323Z" transform="translate(-81.431 -303.542)" fill="#381475" opacity="0.4" style="mix-blend-mode: multiply;isolation: isolate"/>
      <path id="Path_161" data-name="Path 161" d="M91.727,278.318l-.273,1.323h19.688l-.59-1.323Z" transform="translate(-86.644 -278.318)" fill="#381475" opacity="0.4" style="mix-blend-mode: multiply;isolation: isolate"/>
    </g>
    <path id="Path_162" data-name="Path 162" d="M258.133,298.013H136.084a6.6,6.6,0,0,1-5.639-3.937L100.173,217.9c-.864-2.174-.024-4.652,2.226-4.652H224.448a6.6,6.6,0,0,1,5.64,3.937l30.556,76.892C261.508,296.251,260.384,298.013,258.133,298.013Z" transform="translate(-83.344 -213.248)" fill="url(#linear-gradient-6)"/>
    <path id="Path_163" data-name="Path 163" d="M261.541,298.013H139.5a6.6,6.6,0,0,1-5.639-3.937L103.3,217.185c-.864-2.174.26-3.937,2.511-3.937H227.858a6.6,6.6,0,0,1,5.639,3.937l30.554,76.892C264.915,296.251,263.791,298.013,261.541,298.013Z" transform="translate(-84.995 -213.248)" fill="#361371"/>
    <ellipse id="Ellipse_4" data-name="Ellipse 4" cx="2.276" cy="3.333" rx="2.276" ry="3.333" transform="matrix(0.637, -0.771, 0.771, 0.637, 154.111, 42.014)" fill="#7733d6"/>
    <path id="Path_164" data-name="Path 164" d="M257.626,298.4H143.985l-12.342-30.926-17.772-44.536H227.509l11.176,28Z" transform="translate(-90.643 -218.29)" fill="url(#linear-gradient-7)"/>
    <g id="Group_102" data-name="Group 102" transform="translate(13.042 9.038)">
      <g id="Group_97" data-name="Group 97" opacity="0.2" style="mix-blend-mode: color-dodge;isolation: isolate">
        <path id="Path_165" data-name="Path 165" d="M178.533,251.979H135.02l-7.637-19.895H170.9Z" transform="translate(-127.383 -232.084)" fill="#d9b4f4"/>
        <path id="Path_166" data-name="Path 166" d="M318.886,251.979H293.62l-7.637-19.895h25.265Z" transform="translate(-187.733 -232.084)" fill="#d9b4f4"/>
        <path id="Path_167" data-name="Path 167" d="M258.642,251.979H234.855l-7.637-19.895h23.787Z" transform="translate(-167.881 -232.084)" fill="#d9b4f4"/>
        <path id="Path_168" data-name="Path 168" d="M172.884,297.358H152.439l-6.129-15.965h20.445Z" transform="translate(-137.228 -257.733)" fill="#d9b4f4"/>
        <path id="Path_169" data-name="Path 169" d="M188.9,339.07H168.451L162.322,323.1h20.445Z" transform="translate(-145.557 -279.43)" fill="#d9b4f4"/>
        <path id="Path_170" data-name="Path 170" d="M247.2,317.29H211.3l-13.78-35.9h35.9Z" transform="translate(-153.867 -257.733)" fill="#d9b4f4"/>
        <path id="Path_171" data-name="Path 171" d="M320.053,286.122H283.775l-1.816-4.73h36.278Z" transform="translate(-185.639 -257.733)" fill="#d9b4f4"/>
        <path id="Path_172" data-name="Path 172" d="M326.757,303.585H290.478l-1.816-4.73h36.278Z" transform="translate(-189.126 -266.816)" fill="#d9b4f4"/>
        <path id="Path_173" data-name="Path 173" d="M333.46,321.047H297.182l-1.816-4.73h36.278Z" transform="translate(-192.613 -275.9)" fill="#d9b4f4"/>
        <path id="Path_174" data-name="Path 174" d="M342.478,344.541H306.2l-4.131-10.761h36.278Z" transform="translate(-196.1 -284.983)" fill="#d9b4f4"/>
      </g>
      <path id="Path_175" data-name="Path 175" d="M242.823,297.83a7.914,7.914,0,0,0-3.751-2.055c-.3-.993-.638-2.026-1.068-3.148a1.636,1.636,0,0,0-1.4-1.008H218.349c-.557,0-.835.451-.621,1.008.43,1.122.884,2.155,1.348,3.148a2.87,2.87,0,0,0-2.174,2.055,5.34,5.34,0,0,0,1.356,4.587l.761.936a8.268,8.268,0,0,0,3.988,2.7,5.778,5.778,0,0,0,1.595.238,3.87,3.87,0,0,0,1.72-.373,13.344,13.344,0,0,0,6.917,3.34l.745,1.941h-4.056c-.557,0-.835.451-.621,1.008l1.836,4.783H230c-.557,0-.835.451-.621,1.009a1.636,1.636,0,0,0,1.4,1.008h14.43c.557,0,.835-.451.621-1.008a1.635,1.635,0,0,0-1.4-1.009h-1.142l-1.836-4.783a1.636,1.636,0,0,0-1.4-1.008H236l-.745-1.941a5.2,5.2,0,0,0,4.352-3.34,6,6,0,0,0,2.006.373,4.054,4.054,0,0,0,1.412-.238,2.888,2.888,0,0,0,1.919-2.7l.044-.936A6.314,6.314,0,0,0,242.823,297.83Zm-19.924,6.3a4.838,4.838,0,0,1-2.332-1.576l-.762-.936a3.079,3.079,0,0,1-.792-2.68,1.63,1.63,0,0,1,1.078-1.133,30.5,30.5,0,0,0,4.417,6.357A2.9,2.9,0,0,1,222.9,304.132Zm19.932-2.512-.044.936a1.69,1.69,0,0,1-1.121,1.576,2.764,2.764,0,0,1-1.585.033,16.958,16.958,0,0,0-.464-6.358,4.641,4.641,0,0,1,1.948,1.133A3.64,3.64,0,0,1,242.83,301.62Z" transform="translate(-163.895 -263.052)" fill="#fff" opacity="0.3" style="mix-blend-mode: overlay;isolation: isolate"/>
      <g id="Group_101" data-name="Group 101" transform="translate(114.36 50.054)">
        <g id="Group_98" data-name="Group 98" transform="translate(8.682)">
          <path id="Path_176" data-name="Path 176" d="M337.955,340.657a6.907,6.907,0,0,0,5.891,4.257c2.351,0,3.525-1.906,2.623-4.257a6.907,6.907,0,0,0-5.891-4.257C338.227,336.4,337.053,338.306,337.955,340.657Z" transform="translate(-337.651 -336.4)" fill="#fff" opacity="0.3" style="mix-blend-mode: overlay;isolation: isolate"/>
          <path id="Path_177" data-name="Path 177" d="M343.99,341.951l1,2.6c.119.312-.036.566-.348.566a.919.919,0,0,1-.783-.566l-1-2.6c-.119-.312.036-.565.348-.565A.918.918,0,0,1,343.99,341.951Zm1.171-.565c-.312,0-.468.253-.348.565l1,2.6a.919.919,0,0,0,.783.566c.312,0,.468-.254.348-.566l-1-2.6A.918.918,0,0,0,345.161,341.386Z" transform="translate(-340.339 -338.994)" fill="#fff"/>
        </g>
        <g id="Group_99" data-name="Group 99" transform="translate(0 1.136)">
          <path id="Path_178" data-name="Path 178" d="M326.02,341.889c.662,1.723-.2,3.12-1.923,3.12a5.064,5.064,0,0,1-4.318-3.12c-.662-1.724.2-3.121,1.923-3.121A5.064,5.064,0,0,1,326.02,341.889Z" transform="translate(-319.556 -338.768)" fill="#fff" opacity="0.3" style="mix-blend-mode: overlay;isolation: isolate"/>
          <path id="Path_179" data-name="Path 179" d="M325.059,342.721a.233.233,0,0,0-.289.062l-.528.857-.251-.654a.48.48,0,0,0-.279-.265.232.232,0,0,0-.288.062l-.584.947c-.069.112,0,.293.156.405l1.31.947a.416.416,0,0,0,.235.084.236.236,0,0,0,.1-.022.2.2,0,0,0,.075-.265l-.251-.654,1.185.856a.416.416,0,0,0,.235.084.232.232,0,0,0,.1-.022.2.2,0,0,0,.075-.265l-.727-1.894A.481.481,0,0,0,325.059,342.721Z" transform="translate(-321.251 -340.813)" fill="#fff"/>
        </g>
        <g id="Group_100" data-name="Group 100" transform="translate(19.8 1.136)">
          <path id="Path_180" data-name="Path 180" d="M361.043,341.889a5.064,5.064,0,0,0,4.318,3.12c1.724,0,2.584-1.4,1.923-3.12a5.064,5.064,0,0,0-4.318-3.121C361.242,338.768,360.382,340.165,361.043,341.889Z" transform="translate(-360.82 -338.768)" fill="#fff" opacity="0.3" style="mix-blend-mode: overlay;isolation: isolate"/>
          <path id="Path_181" data-name="Path 181" d="M367.77,343.731l-1.311-.947a.344.344,0,0,0-.336-.062.2.2,0,0,0-.075.265l.251.654-1.185-.857a.345.345,0,0,0-.337-.062.2.2,0,0,0-.075.265l.727,1.894a.481.481,0,0,0,.279.265.361.361,0,0,0,.118.022.191.191,0,0,0,.17-.084l.528-.856.251.654a.484.484,0,0,0,.279.265.364.364,0,0,0,.119.022.191.191,0,0,0,.17-.084l.583-.947C367.995,344.024,367.925,343.843,367.77,343.731Z" transform="translate(-362.828 -340.813)" fill="#fff"/>
        </g>
      </g>
      <path id="Path_182" data-name="Path 182" d="M169.01,289.889l-.633-1.649h.334c.367,0,.551-.3.41-.665a1.079,1.079,0,0,0-.92-.665h-2.473c-.367,0-.55.3-.409.665a1.078,1.078,0,0,0,.92.665h.334l.633,1.649c-1.527.406-2.2,1.921-1.5,3.728a6.224,6.224,0,0,0,5.308,3.836c2.118,0,3.176-1.718,2.363-3.836A6.409,6.409,0,0,0,169.01,289.889Zm-3.022,2.188a1.973,1.973,0,0,1,1.521-1.7l.347-.093-.784-2.043h.8l.785,2.043.418.093a5.538,5.538,0,0,1,2.828,1.7Z" transform="translate(-147.091 -260.603)" fill="#fff" opacity="0.3" style="mix-blend-mode: overlay;isolation: isolate"/>
      <path id="Path_183" data-name="Path 183" d="M320.825,248.861l-2.253-.912c.429-.644.688-1.8-.081-3.8a6.156,6.156,0,0,0-5.426-4.285c-1.882,0-3.272,1.325-2.136,4.285a7.982,7.982,0,0,0,2.834,3.8l-.726.427a4.473,4.473,0,0,0-.679-.358l-1.43-.579a3.226,3.226,0,0,0-.136-2.707,4.655,4.655,0,0,0-4.111-3.233c-1.427,0-2.485,1-1.628,3.233a6.071,6.071,0,0,0,1.942,2.707l-.987.579a1.933,1.933,0,0,0-.614,2.495.783.783,0,0,0,.668.483h5.094a3.677,3.677,0,0,0,.245,1.148.782.782,0,0,0,.668.483h11.786c.267,0,.4-.216.3-.483A6.141,6.141,0,0,0,320.825,248.861Zm-8.6,2.8a2.177,2.177,0,0,1,0-.913,1.728,1.728,0,0,1,.088-.273c.012-.028.026-.055.039-.082a1.5,1.5,0,0,1,.1-.18c.019-.029.038-.058.06-.085a1.506,1.506,0,0,1,.133-.15c.023-.023.044-.047.068-.069a1.584,1.584,0,0,1,.22-.162c.007,0,.013-.011.021-.015l.331-.194.262-.153h0l1.544-.905a.33.33,0,0,0,.114-.417.8.8,0,0,0-.408-.437,6.133,6.133,0,0,1-2.908-3.472c-.939-2.448.18-3.319,1.541-3.319s3.151.872,4.091,3.319c.634,1.653.548,2.886-.242,3.472a.35.35,0,0,0-.073.437.813.813,0,0,0,.434.417l3.1,1.253a4.627,4.627,0,0,1,2.214,1.928Z" transform="translate(-201.652 -236.133)" fill="#fff" opacity="0.3" style="mix-blend-mode: overlay;isolation: isolate"/>
    </g>
    <g id="Group_103" data-name="Group 103" transform="translate(34.585 38.327)">
      <path id="Path_184" data-name="Path 184" d="M136.267,293.6c.1.261-.03.472-.29.472a.765.765,0,0,1-.653-.472c-.1-.261.03-.472.29-.472A.765.765,0,0,1,136.267,293.6Z" transform="translate(-135.29 -293.125)" fill="#7733d6"/>
      <path id="Path_185" data-name="Path 185" d="M139.725,303.834h0a.765.765,0,0,1-.653-.472l-1.832-4.771c-.1-.261.03-.472.29-.472h0a.765.765,0,0,1,.653.472l1.832,4.771C140.116,303.623,139.986,303.834,139.725,303.834Z" transform="translate(-136.288 -295.723)" fill="#7733d6"/>
    </g>
  </g>
  <g id="Group_121" data-name="Group 121" transform="translate(179.013 88.742)">
    <g id="Group_105" data-name="Group 105" transform="translate(0 33.858)">
      <path id="Path_186" data-name="Path 186" d="M421.445,274.6c1.175,22.274-.519,53.336-.519,53.336l1.784,1.993H415.7l.058-50.872a.484.484,0,0,0-.54-.48h0a.484.484,0,0,0-.414.369l-11.753,50.983h-8.031l3.339-1.993,11.077-53.121Z" transform="translate(-395.025 -274.595)" fill="#481c95"/>
    </g>
    <path id="Path_187" data-name="Path 187" d="M430.552,232.473a9.977,9.977,0,0,0-3.4-.737,57.407,57.407,0,0,0-8.107.23,16.944,16.944,0,0,0-3.283.918,3.4,3.4,0,0,0-1.977,2.394l-.93,4.231a14.825,14.825,0,0,1,3.158,4.814l.8-4.589,1.375,15.256,11.937-2.592,1.564,1.706s6.7-9.521,6.748-10.218S432.148,233.57,430.552,232.473Zm-.1,16.568-.822-10,3.917,5.044Z" transform="translate(-404.299 -218.412)" fill="#eb6270"/>
    <g id="Group_106" data-name="Group 106" transform="translate(14.852 33.337)" opacity="0.2" style="mix-blend-mode: multiply;isolation: isolate">
      <path id="Path_188" data-name="Path 188" d="M426.114,275.573a.136.136,0,0,1-.025-.27l9.315-1.791a.136.136,0,0,1,.051.267l-9.316,1.791Z" transform="translate(-425.978 -273.51)" fill="#323b72"/>
    </g>
    <g id="Group_107" data-name="Group 107" transform="translate(23.856 31.433)">
      <path id="Path_189" data-name="Path 189" d="M444.865,270.331s1.867-1.093,2.334-.706a1.672,1.672,0,0,1,.431,1.275c.024.225.8.489.889,1.2s.672,1.12.64,1.717-1.008.868-1.261.932-.663-1.213-.663-1.213-.644.076-.776-.1-.583-1.24-.583-1.24a4.015,4.015,0,0,1-.916-.427,2.509,2.509,0,0,1-.219-.567l.458-.283Z" transform="translate(-444.742 -269.542)" fill="#f5ba9a"/>
    </g>
    <path id="Path_190" data-name="Path 190" d="M432.642,229.318s.6-.129.872.177.415,3.306-.067,3.39c-.445.078-1.892-1.574-1.892-1.574s-1.465,1.818-1.93,1.621c-.428-.181.132-3.548,1.091-3.549S432.642,229.318,432.642,229.318Z" transform="translate(-412.947 -217.171)" fill="#481c95"/>
    <path id="Path_191" data-name="Path 191" d="M423.525,213.366a4.3,4.3,0,0,0,.615,2.216l.116-2.524Z" transform="translate(-409.85 -208.727)" fill="url(#linear-gradient-8)"/>
    <g id="Group_108" data-name="Group 108" transform="translate(14.263 1.526)">
      <path id="Path_192" data-name="Path 192" d="M429.1,219.59a1.1,1.1,0,0,0,.974-.465c.415-.686.191-1.559.62-2.23a10.757,10.757,0,0,1,.7-.869,3.878,3.878,0,0,0,.65-1.553c.617-2.494-.318-7.729-4.02-7.227s-3.438,4.662-3.085,6.546a6.69,6.69,0,0,0,.722,2.161,2.76,2.76,0,0,0,.766.871,11.264,11.264,0,0,0,1.124.492c.492.275.4.973.453,1.449A.883.883,0,0,0,429.1,219.59Z" transform="translate(-424.75 -207.213)" fill="#f5ba9a"/>
    </g>
    <path id="Path_193" data-name="Path 193" d="M428.269,210.31c-.472.214-.679,1.294-.679,1.294l-.457-.144.274-1.985s-1.254-.336-1.117-2.19a3.016,3.016,0,0,1-2.937,1.425l.592-1.087s-6.114,4.723-7.007.716l3.566-1.2s-2.558.678-3.566-1.18l3.526-.464-2.116-.54s8.431-2.175,8.7.156c0,0,.8-.712,1.745.321.758.832-.059,4.761-.059,4.761Z" transform="translate(-406.423 -204.033)" fill="#481c95"/>
    <g id="Group_109" data-name="Group 109" transform="translate(21.166 6.132)">
      <path id="Path_194" data-name="Path 194" d="M439.143,217.986a1.064,1.064,0,1,0,.95-1.167A1.064,1.064,0,0,0,439.143,217.986Z" transform="translate(-439.137 -216.813)" fill="#f5ba9a"/>
    </g>
    <g id="Group_110" data-name="Group 110" transform="translate(13.016 6.849)">
      <path id="Path_195" data-name="Path 195" d="M422.158,219.479a1.064,1.064,0,1,0,.95-1.167A1.064,1.064,0,0,0,422.158,219.479Z" transform="translate(-422.152 -218.306)" fill="#f5ba9a"/>
    </g>
    <g id="Group_111" data-name="Group 111" transform="translate(16.691 6.913)">
      <path id="Path_196" data-name="Path 196" d="M430.05,220.253a.234.234,0,0,1-.24-.268,2,2,0,0,1,.278-.775,1.761,1.761,0,0,0,.116-.245.964.964,0,0,0,0-.369.136.136,0,0,1,.27-.036,1.191,1.191,0,0,1-.009.477,1.727,1.727,0,0,1-.137.3,1.949,1.949,0,0,0-.247.641,1.8,1.8,0,0,0,.259-.1,2.483,2.483,0,0,1,.259-.106.136.136,0,0,1,.081.261,2.04,2.04,0,0,0-.227.093A1.108,1.108,0,0,1,430.05,220.253Z" transform="translate(-429.81 -218.441)" fill="#f08f78"/>
    </g>
    <g id="Group_112" data-name="Group 112" transform="translate(17.176 8.321)">
      <path id="Path_197" data-name="Path 197" d="M431.177,222.534a1.5,1.5,0,0,1-.241-.019.136.136,0,1,1,.043-.268,1.267,1.267,0,0,0,1.378-.787.136.136,0,1,1,.253.1,1.537,1.537,0,0,1-1.433.975Z" transform="translate(-430.821 -221.373)" fill="#f08f78"/>
    </g>
    <g id="Group_113" data-name="Group 113" transform="translate(14.184 7.139)">
      <path id="Path_198" data-name="Path 198" d="M424.928,220.38a.136.136,0,0,1-.134-.113l-.207-1.2a.136.136,0,0,1,.11-.158.135.135,0,0,1,.157.111l.207,1.2a.136.136,0,0,1-.11.157Z" transform="translate(-424.585 -218.911)" fill="#f08f78"/>
    </g>
    <g id="Group_114" data-name="Group 114" transform="translate(13.654 7.567)">
      <path id="Path_199" data-name="Path 199" d="M424.2,220.157a.131.131,0,0,1-.038-.005,1.986,1.986,0,0,0-.542-.078.136.136,0,0,1,0-.272h0a2.269,2.269,0,0,1,.617.088.136.136,0,0,1-.038.267Z" transform="translate(-423.482 -219.802)" fill="#f08f78"/>
    </g>
    <g id="Group_115" data-name="Group 115" transform="translate(21.523 6.579)">
      <path id="Path_200" data-name="Path 200" d="M440.061,218.771a.136.136,0,0,1-.123-.079.672.672,0,0,1,1.11-.73.136.136,0,1,1-.2.181.4.4,0,0,0-.66.434.135.135,0,0,1-.066.181A.133.133,0,0,1,440.061,218.771Z" transform="translate(-439.88 -217.744)" fill="#f08f78"/>
    </g>
    <g id="Group_116" data-name="Group 116" transform="translate(17.767 11.292)">
      <path id="Path_201" data-name="Path 201" d="M432.532,228.123a3.434,3.434,0,0,1-.357-.018.137.137,0,0,1-.121-.15.134.134,0,0,1,.15-.121,3.2,3.2,0,0,0,1.621-.256.136.136,0,1,1,.11.249A3.463,3.463,0,0,1,432.532,228.123Z" transform="translate(-432.052 -227.567)" fill="#f08f78"/>
    </g>
    <g id="Group_117" data-name="Group 117" transform="translate(17.377 4.887)">
      <path id="Path_202" data-name="Path 202" d="M431.377,214.884a.136.136,0,0,1-.1-.224,1.247,1.247,0,0,1,1.871-.041.136.136,0,0,1-.2.184.966.966,0,0,0-.739-.314.99.99,0,0,0-.724.346A.135.135,0,0,1,431.377,214.884Z" transform="translate(-431.241 -214.217)" fill="#30386f"/>
    </g>
    <g id="Group_118" data-name="Group 118" transform="translate(14.814 5.254)">
      <path id="Path_203" data-name="Path 203" d="M426.034,215.837a.14.14,0,0,1-.06-.013.137.137,0,0,1-.063-.182,1.169,1.169,0,0,1,1.738-.437.136.136,0,0,1-.16.22.9.9,0,0,0-1.333.335A.137.137,0,0,1,426.034,215.837Z" transform="translate(-425.898 -214.983)" fill="#30386f"/>
    </g>
    <path id="Path_204" data-name="Path 204" d="M431.931,217.723a.374.374,0,1,0,.327-.416A.374.374,0,0,0,431.931,217.723Z" transform="translate(-414.221 -210.936)" fill="url(#linear-gradient-9)"/>
    <path id="Path_205" data-name="Path 205" d="M427.793,218.393a.374.374,0,1,0,.327-.416A.374.374,0,0,0,427.793,218.393Z" transform="translate(-412.069 -211.285)" fill="url(#linear-gradient-10)"/>
    <g id="Group_119" data-name="Group 119" transform="translate(4.174 18.689)">
      <path id="Path_206" data-name="Path 206" d="M411.26,243l-6.869,1.492a.847.847,0,0,0-.643,1.029l2.341,9.6a.847.847,0,0,0,1.005.627l6.532-1.436a.847.847,0,0,0,.648-1l-2-9.652A.848.848,0,0,0,411.26,243Z" transform="translate(-403.723 -242.983)" fill="#481c95"/>
    </g>
    <g id="Group_120" data-name="Group 120" transform="translate(4.482 25.323)">
      <path id="Path_207" data-name="Path 207" d="M406.406,256.807s-1.888.207-2.015.724a1.467,1.467,0,0,0,.364,1.124c.1.171-.31.765,0,1.313s.112,1.141.447,1.545,1.164.084,1.376,0-.168-1.2-.168-1.2.494-.283.494-.478-.238-1.178-.238-1.178a3.518,3.518,0,0,0,.422-.78,2.2,2.2,0,0,0-.142-.514l-.471.04Z" transform="translate(-404.366 -256.807)" fill="#f5ba9a"/>
    </g>
  </g>
  <path id="Path_208" data-name="Path 208" d="M270.282,122.888a8.374,8.374,0,0,0-1.542.148,11.222,11.222,0,0,0-22.318,1.69,11.363,11.363,0,0,0,.076,1.266,6.852,6.852,0,1,0-1.295,13.58h25.079a8.342,8.342,0,0,0,0-16.685Z" transform="translate(-136.775 -113.498)" fill="#fff" style="mix-blend-mode: overlay;isolation: isolate"/>
  <path id="Path_209" data-name="Path 209" d="M398.547,139.416a4.137,4.137,0,0,0-.764.073,5.564,5.564,0,0,0-11.029,1.466,3.4,3.4,0,1,0-.642,6.734h12.435a4.137,4.137,0,1,0,0-8.273Z" transform="translate(-209.608 -124.557)" fill="#fff" style="mix-blend-mode: overlay;isolation: isolate"/>
  <g id="Group_122" data-name="Group 122" transform="translate(121.438 38.65)" opacity="0.3" style="mix-blend-mode: overlay;isolation: isolate">
    <path id="Path_210" data-name="Path 210" d="M280.12,188.486a.181.181,0,0,1-.181-.181v-.726a.181.181,0,0,1,.363,0v.726A.181.181,0,0,1,280.12,188.486Zm0-2.541a.181.181,0,0,1-.181-.181v-.726a.181.181,0,1,1,.363,0v.726A.181.181,0,0,1,280.12,185.945Zm0-2.54a.181.181,0,0,1-.181-.181V182.5a.181.181,0,1,1,.363,0v.726A.181.181,0,0,1,280.12,183.405Zm0-2.541a.181.181,0,0,1-.181-.181v-.726a.181.181,0,1,1,.363,0v.726A.181.181,0,0,1,280.12,180.864Zm0-2.541a.181.181,0,0,1-.181-.181v-.726a.181.181,0,1,1,.363,0v.726A.181.181,0,0,1,280.12,178.324Zm0-2.54a.181.181,0,0,1-.181-.181v-.726a.181.181,0,1,1,.363,0v.726A.181.181,0,0,1,280.12,175.783Zm0-2.541a.181.181,0,0,1-.181-.181v-.726a.181.181,0,0,1,.363,0v.726A.181.181,0,0,1,280.12,173.243Z" transform="translate(-279.939 -172.154)" fill="#fff"/>
  </g>
  <g id="Group_123" data-name="Group 123" transform="translate(146.688 19.871)" opacity="0.3" style="mix-blend-mode: overlay;isolation: isolate">
    <path id="Path_211" data-name="Path 211" d="M351.572,155.274h-.725a.181.181,0,1,1,0-.363h.725a.181.181,0,1,1,0,.363Zm-2.54,0h-.726a.181.181,0,0,1,0-.363h.726a.181.181,0,0,1,0,.363Zm-2.541,0h-.726a.181.181,0,0,1,0-.363h.726a.181.181,0,0,1,0,.363Zm-2.541,0h-.725a.181.181,0,1,1,0-.363h.725a.181.181,0,1,1,0,.363Zm-2.54,0h-.726a.181.181,0,1,1,0-.363h.726a.181.181,0,0,1,0,.363Zm-2.541,0h-.726a.181.181,0,0,1,0-.363h.726a.181.181,0,0,1,0,.363Zm-2.541,0H335.6a.181.181,0,1,1,0-.363h.726a.181.181,0,1,1,0,.363Zm-2.54,0h-.726a.181.181,0,1,1,0-.363h.726a.181.181,0,1,1,0,.363Zm-2.541,0h-.726a.181.181,0,0,1,0-.363h.726a.181.181,0,0,1,0,.363Z" transform="translate(-330.341 -154.911)" fill="#fff"/>
  </g>
  <g id="Group_125" data-name="Group 125" transform="translate(41.526 162.294)">
    <g id="Group_124" data-name="Group 124" transform="translate(20.781 5.22)">
      <rect id="Rectangle_17" data-name="Rectangle 17" width="88.531" height="5.208" transform="translate(0 5.208)" fill="#eb6270"/>
      <rect id="Rectangle_18" data-name="Rectangle 18" width="88.531" height="5.208" fill="#f8aa00"/>
    </g>
    <rect id="Rectangle_19" data-name="Rectangle 19" width="88.531" height="5.208" transform="translate(20.781 0.012)" fill="#eb6270"/>
    <path id="Path_212" data-name="Path 212" d="M339.155,357.321a2.6,2.6,0,1,0,0,5.208,2.6,2.6,0,1,0,0,5.208,2.6,2.6,0,1,0,0,5.208c-.012-.012,21.026-7.8,21.026-7.8Z" transform="translate(-229.854 -357.321)" fill="#fff"/>
    <path id="Path_213" data-name="Path 213" d="M377.839,373.5l3.819-1.414-3.819-1.421Z" transform="translate(-251.331 -364.262)" fill="url(#linear-gradient-11)"/>
    <rect id="Rectangle_20" data-name="Rectangle 20" width="3.691" height="15.611" transform="translate(17.091 0.012)" fill="#fff"/>
    <path id="Path_214" data-name="Path 214" d="M121.992,372.957h9.286V357.346h-9.286a7.805,7.805,0,0,0-7.805,7.806h0A7.805,7.805,0,0,0,121.992,372.957Z" transform="translate(-114.187 -357.334)" fill="url(#linear-gradient-12)"/>
  </g>
  <g id="Group_127" data-name="Group 127" transform="translate(63.899 14.437)">
    <path id="Path_215" data-name="Path 215" d="M175.073,156.8l13.681-13.211-14,9.654Z" transform="translate(-169.001 -143.585)" fill="#dec3f7"/>
    <g id="Group_126" data-name="Group 126">
      <path id="Path_216" data-name="Path 216" d="M167.166,152.332l15.354-8.747-19.753,5.794Z" transform="translate(-162.767 -143.585)" fill="#fff"/>
      <path id="Path_217" data-name="Path 217" d="M174.752,153.239l4.858,3.26,9.144-12.914Z" transform="translate(-169.001 -143.585)" fill="#fff"/>
    </g>
    <path id="Path_218" data-name="Path 218" d="M171.935,152.332l1.672,4.465-.321-3.557,14-9.654Z" transform="translate(-167.536 -143.585)" fill="#e6d1f9"/>
  </g>
  <g id="Group_128" data-name="Group 128" transform="translate(0 37.788)" opacity="0.3" style="mix-blend-mode: overlay;isolation: isolate">
    <path id="Path_219" data-name="Path 219" d="M38.506,214.682a.182.182,0,0,1-.134-.059q-.244-.266-.476-.539a.181.181,0,1,1,.277-.235q.228.269.467.529a.182.182,0,0,1-.133.3Zm-1.574-1.975a.181.181,0,0,1-.149-.078q-.208-.3-.4-.612a.182.182,0,1,1,.307-.194q.192.3.4.6a.181.181,0,0,1-.046.252A.177.177,0,0,1,36.932,212.708Zm-1.3-2.182a.181.181,0,0,1-.162-.1q-.166-.327-.319-.66a.181.181,0,1,1,.33-.152q.15.326.313.648a.181.181,0,0,1-.08.244A.186.186,0,0,1,35.636,210.525Zm-1-2.335a.182.182,0,0,1-.171-.121q-.122-.346-.23-.7a.182.182,0,1,1,.347-.107q.106.343.226.683a.181.181,0,0,1-.111.231A.176.176,0,0,1,34.64,208.19Zm-.685-2.446a.182.182,0,0,1-.177-.144q-.076-.358-.138-.719a.182.182,0,0,1,.358-.062c.04.236.086.472.135.706a.182.182,0,0,1-.14.215A.166.166,0,0,1,33.955,205.744Zm-.361-2.513a.181.181,0,0,1-.18-.167q-.028-.365-.043-.731a.182.182,0,0,1,.174-.189.172.172,0,0,1,.189.174q.014.359.042.718a.182.182,0,0,1-.167.195Zm-.025-2.538h-.011a.181.181,0,0,1-.17-.192q.021-.366.057-.73a.185.185,0,0,1,.2-.163.181.181,0,0,1,.163.2q-.035.358-.056.716A.181.181,0,0,1,33.569,200.693Zm.323-2.518a.175.175,0,0,1-.038,0,.182.182,0,0,1-.139-.216l.012-.056c.044-.221.094-.44.147-.657a.181.181,0,1,1,.352.086q-.078.32-.143.643l-.012.061A.182.182,0,0,1,33.891,198.176Zm.674-2.448a.19.19,0,0,1-.06-.01.182.182,0,0,1-.111-.232c.081-.23.167-.459.257-.686a.182.182,0,1,1,.337.134q-.133.334-.252.673A.182.182,0,0,1,34.566,195.728Zm1-2.331a.181.181,0,0,1-.162-.264q.167-.326.346-.646a.182.182,0,1,1,.317.178q-.176.314-.34.634A.182.182,0,0,1,35.569,193.4Zm1.3-2.178a.181.181,0,0,1-.149-.285q.208-.3.428-.595a.182.182,0,0,1,.291.217q-.215.288-.42.584A.181.181,0,0,1,36.873,191.219Zm1.576-1.991a.181.181,0,0,1-.135-.3q.245-.271.5-.534a.182.182,0,0,1,.26.253q-.25.257-.492.524A.181.181,0,0,1,38.449,189.228Zm1.821-1.769a.181.181,0,0,1-.118-.32q.279-.238.567-.464a.182.182,0,0,1,.225.285q-.283.222-.557.456A.181.181,0,0,1,40.27,187.459Zm2.038-1.512a.182.182,0,0,1-.1-.334q.308-.2.625-.383a.181.181,0,0,1,.184.313q-.31.182-.612.376A.179.179,0,0,1,42.309,185.947Zm2.227-1.219a.182.182,0,0,1-.076-.346l.1-.045q.284-.129.572-.248a.182.182,0,0,1,.139.335q-.283.117-.562.243l-.1.045A.182.182,0,0,1,44.535,184.727Zm2.368-.909a.182.182,0,0,1-.055-.355q.348-.11.7-.21a.182.182,0,0,1,.1.349q-.347.1-.69.206A.186.186,0,0,1,46.9,183.818Zm2.457-.639a.182.182,0,0,1-.037-.359q.358-.075.718-.141a.18.18,0,0,1,.212.145.182.182,0,0,1-.146.212c-.238.044-.474.09-.71.139A.166.166,0,0,1,49.36,183.179Zm2.507-.422a.181.181,0,0,1-.023-.361c.241-.032.483-.061.725-.089a.182.182,0,0,1,.041.361q-.361.041-.719.088Zm2.53-.262a.182.182,0,0,1-.014-.363q.364-.029.727-.054a.181.181,0,1,1,.025.362q-.363.025-.724.054Zm2.538-.161a.181.181,0,0,1-.009-.363l.726-.035a.181.181,0,1,1,.017.362l-.725.035Zm2.54-.112a.182.182,0,0,1-.008-.363l.725-.03a.181.181,0,1,1,.015.362l-.725.031Zm2.538-.118a.182.182,0,0,1-.01-.363q.361-.019.722-.041a.181.181,0,1,1,.022.362l-.725.042Zm2.533-.174a.182.182,0,0,1-.016-.362q.361-.032.72-.068a.185.185,0,0,1,.2.162.182.182,0,0,1-.162.2c-.241.024-.483.047-.725.068Zm2.524-.29a.181.181,0,0,1-.026-.361q.358-.052.713-.112a.182.182,0,0,1,.06.358c-.24.04-.48.078-.721.113Zm2.5-.466a.182.182,0,0,1-.041-.358q.352-.082.7-.174a.181.181,0,0,1,.093.351q-.353.094-.71.177A.205.205,0,0,1,69.566,181.173ZM72,180.464a.181.181,0,0,1-.06-.352q.339-.12.672-.253a.182.182,0,1,1,.134.337q-.34.135-.685.258A.193.193,0,0,1,72,180.464Zm2.327-1.008a.181.181,0,0,1-.083-.343q.317-.165.629-.345a.181.181,0,1,1,.181.314q-.319.184-.643.352A.179.179,0,0,1,74.329,179.456Zm5.421-1.037h-.007q-.368-.012-.734-.046a.182.182,0,0,1,.033-.362c.237.022.476.036.714.045a.181.181,0,0,1-.006.363Zm1.813-.047a.181.181,0,0,1-.014-.362q.358-.03.714-.074a.182.182,0,0,1,.045.36q-.364.045-.729.075Zm-5.08-.253a.181.181,0,0,1-.108-.327l.011-.009a.182.182,0,0,1,.213-.266l.095.031c.082-.065.164-.131.245-.2a.181.181,0,1,1,.232.279l-.053.044.166.044a.181.181,0,0,1-.088.352c-.143-.036-.286-.075-.427-.118l-.176.133A.18.18,0,0,1,76.482,178.118Zm7.591-.125a.182.182,0,0,1-.037-.359l.346-.076.357-.084a.181.181,0,0,1,.086.353c-.12.029-.241.058-.362.085s-.234.053-.351.077A.174.174,0,0,1,84.073,177.994Zm2.455-.65a.181.181,0,0,1-.055-.354q.344-.109.684-.227a.182.182,0,1,1,.119.343q-.345.119-.694.23A.18.18,0,0,1,86.529,177.344Zm-11.643-.21a.184.184,0,0,1-.091-.024c-.214-.124-.424-.258-.624-.4a.181.181,0,1,1,.208-.3c.192.134.393.262.6.381a.182.182,0,0,1-.091.339Zm14.025-.67a.181.181,0,0,1-.071-.348q.332-.14.66-.29a.182.182,0,0,1,.15.331q-.332.151-.669.294A.184.184,0,0,1,88.911,176.464Zm-10.552-.054a.184.184,0,0,1-.121-.045.182.182,0,0,1-.015-.256c.16-.181.313-.366.454-.55a.181.181,0,1,1,.287.221c-.146.191-.305.382-.47.569A.182.182,0,0,1,78.359,176.411Zm-5.45-.857a.182.182,0,0,1-.133-.058c-.168-.183-.329-.375-.477-.569a.181.181,0,1,1,.288-.22c.142.186.3.369.456.543a.182.182,0,0,1-.011.256A.179.179,0,0,1,72.908,175.553Zm18.292-.187a.181.181,0,0,1-.086-.341q.317-.171.63-.35a.181.181,0,0,1,.18.315q-.317.181-.639.355A.178.178,0,0,1,91.2,175.366Zm-11.419-1.05a.175.175,0,0,1-.08-.019.182.182,0,0,1-.083-.243c.1-.213.2-.432.282-.65a.181.181,0,1,1,.339.129c-.086.228-.186.457-.3.681A.182.182,0,0,1,79.782,174.316Zm13.6-.256a.182.182,0,0,1-.1-.333q.3-.2.595-.406a.181.181,0,1,1,.209.3q-.3.211-.6.413A.179.179,0,0,1,93.379,174.06Zm-21.847-.627a.182.182,0,0,1-.168-.112,6.422,6.422,0,0,1-.247-.7.181.181,0,0,1,.349-.1,6.073,6.073,0,0,0,.234.664.182.182,0,0,1-.1.238A.178.178,0,0,1,71.532,173.433Zm23.894-.876a.182.182,0,0,1-.114-.322q.28-.227.554-.461a.182.182,0,0,1,.236.276q-.278.237-.562.467A.18.18,0,0,1,95.426,172.557Zm-14.935-.666h-.018a.181.181,0,0,1-.163-.2,5.1,5.1,0,0,0,.026-.514c0-.062,0-.124,0-.186a.181.181,0,0,1,.176-.187.169.169,0,0,1,.187.175c0,.066,0,.132,0,.2a5.4,5.4,0,0,1-.028.551A.181.181,0,0,1,80.491,171.891Zm-9.423-.935H71.06a.181.181,0,0,1-.173-.19,5,5,0,0,1,.091-.747.181.181,0,1,1,.356.071,4.785,4.785,0,0,0-.084.692A.182.182,0,0,1,71.068,170.956Zm26.254-.088a.182.182,0,0,1-.127-.311q.257-.252.508-.511a.181.181,0,1,1,.261.252q-.254.263-.515.519A.182.182,0,0,1,97.322,170.868Zm-17.15-1.477a.18.18,0,0,1-.171-.12,5.99,5.99,0,0,0-.275-.648.181.181,0,0,1,.325-.162,6.3,6.3,0,0,1,.292.688.181.181,0,0,1-.171.242ZM71.8,168.55a.177.177,0,0,1-.092-.025.181.181,0,0,1-.065-.248,6.01,6.01,0,0,1,.418-.621.182.182,0,0,1,.288.222,5.526,5.526,0,0,0-.393.583A.182.182,0,0,1,71.8,168.55Zm7.033-1.3a.181.181,0,0,1-.128-.053,4.6,4.6,0,0,0-.53-.453.182.182,0,0,1,.214-.293,5.01,5.01,0,0,1,.571.488.182.182,0,0,1-.128.31Zm-5.307-.539a.181.181,0,0,1-.1-.333,4.914,4.914,0,0,1,.658-.365.181.181,0,1,1,.151.33,4.636,4.636,0,0,0-.61.339A.181.181,0,0,1,73.529,166.716Zm3.113-.664a.185.185,0,0,1-.036,0c-.06-.012-.121-.023-.182-.032a3.627,3.627,0,0,0-.5-.04.181.181,0,0,1,0-.363h0a4.062,4.062,0,0,1,.555.043c.067.01.134.022.2.035a.181.181,0,0,1-.035.359Z" transform="translate(-33.371 -165.614)" fill="#fff"/>
  </g>
  <path id="Path_220" data-name="Path 220" d="M293.749,186.062a1.4,1.4,0,0,1-.844,1.28v3.779a.549.549,0,0,1-1.1,0v-3.779a1.393,1.393,0,0,1,0-2.56v-1.21a.549.549,0,1,1,1.1,0v1.21A1.4,1.4,0,0,1,293.749,186.062Zm2.107,1.683v-4.173a.549.549,0,1,0-1.1,0v4.173a1.393,1.393,0,0,0,0,2.56v.815a.549.549,0,0,0,1.1,0v-.815a1.392,1.392,0,0,0,0-2.56Zm3.8-.216a1.4,1.4,0,0,0-.845-1.28v-2.677a.549.549,0,1,0-1.1,0v2.677a1.392,1.392,0,0,0,0,2.56v2.311a.549.549,0,0,0,1.1,0v-2.311A1.4,1.4,0,0,0,299.653,187.529Z" transform="translate(-163.958 -137.953)" fill="#fff" opacity="0.4" style="mix-blend-mode: multiply;isolation: isolate"/>
  <g id="Group_132" data-name="Group 132" transform="translate(38.994 132.209)">
    <g id="Group_129" data-name="Group 129">
      <rect id="Rectangle_21" data-name="Rectangle 21" width="23.837" height="14.627" transform="translate(11.307 7.368)" fill="url(#linear-gradient-13)"/>
      <path id="Path_223" data-name="Path 223" d="M135.059,311.507l-23.089,7.368,23.089,7.368,23.089-7.368Z" transform="translate(-111.97 -311.507)" fill="url(#linear-gradient-14)"/>
    </g>
    <g id="Group_130" data-name="Group 130" transform="translate(7.515 5.387)">
      <path id="Path_224" data-name="Path 224" d="M128.026,333.673a.394.394,0,0,1-.394-.394v-6.04a.393.393,0,0,1,.291-.38l15.18-4.111a.394.394,0,0,1,.206.761l-14.889,4.031v5.738A.394.394,0,0,1,128.026,333.673Z" transform="translate(-127.632 -322.735)" fill="url(#linear-gradient-15)"/>
    </g>
    <g id="Group_131" data-name="Group 131" transform="translate(7.058 15.229)">
      <path id="Path_225" data-name="Path 225" d="M128.452,348.051H126.68v-3.918a.886.886,0,0,1,.886-.886h0a.886.886,0,0,1,.886.886Z" transform="translate(-126.68 -343.246)" fill="url(#linear-gradient-16)"/>
    </g>
  </g>
  <g id="Group_133" data-name="Group 133" transform="translate(182.733 33.908)" opacity="0.3" style="mix-blend-mode: overlay;isolation: isolate">
    <path id="Path_226" data-name="Path 226" d="M402.961,194.6a.182.182,0,0,1-.182-.181v-.726a.182.182,0,0,1,.363,0v.726A.181.181,0,0,1,402.961,194.6Zm0-2.541a.182.182,0,0,1-.182-.181v-.726a.182.182,0,0,1,.363,0v.726A.181.181,0,0,1,402.961,192.059Zm0-2.541a.182.182,0,0,1-.182-.181v-.726a.182.182,0,1,1,.363,0v.726A.181.181,0,0,1,402.961,189.518Zm0-2.54a.182.182,0,0,1-.182-.181v-.726a.182.182,0,0,1,.363,0v.726A.181.181,0,0,1,402.961,186.978Zm0-2.541a.182.182,0,0,1-.182-.181v-.726a.182.182,0,0,1,.363,0v.726A.181.181,0,0,1,402.961,184.437Zm0-2.541a.182.182,0,0,1-.182-.181v-.725a.182.182,0,1,1,.363,0v.725A.181.181,0,0,1,402.961,181.9Zm0-2.54a.182.182,0,0,1-.182-.181v-.726a.182.182,0,0,1,.363,0v.726A.181.181,0,0,1,402.961,179.356Zm0-2.541a.182.182,0,0,1-.182-.181v-.726a.182.182,0,0,1,.363,0v.726A.181.181,0,0,1,402.961,176.816Zm0-2.541a.182.182,0,0,1-.182-.181v-.726a.182.182,0,0,1,.363,0v.726A.181.181,0,0,1,402.961,174.275Zm0-2.54a.182.182,0,0,1-.182-.181v-.726a.182.182,0,1,1,.363,0v.726A.182.182,0,0,1,402.961,171.735Zm0-2.541a.182.182,0,0,1-.182-.181v-.726a.182.182,0,0,1,.363,0v.726A.181.181,0,0,1,402.961,169.194Zm0-2.541a.182.182,0,0,1-.182-.181v-.726a.182.182,0,0,1,.363,0v.726A.181.181,0,0,1,402.961,166.653Zm0-2.54a.182.182,0,0,1-.182-.181v-.726a.182.182,0,1,1,.363,0v.726A.182.182,0,0,1,402.961,164.113Z" transform="translate(-402.779 -163.024)" fill="#fff"/>
  </g>
  <g id="Group_144" data-name="Group 144" transform="translate(64.202 54.184)">
    <g id="Group_134" data-name="Group 134">
      <path id="Path_227" data-name="Path 227" d="M205.191,192.518H167.025a4.257,4.257,0,0,0-4.258,4.258v18.591a4.258,4.258,0,0,0,4.258,4.258h2.155a1.836,1.836,0,0,1,1.836,1.836v2.284a.89.89,0,0,0,1.52.629l4.212-4.212a1.837,1.837,0,0,1,1.3-.537h27.144a4.258,4.258,0,0,0,4.258-4.258V196.776A4.258,4.258,0,0,0,205.191,192.518Z" transform="translate(-162.767 -192.518)" fill="#fff"/>
    </g>
    <g id="Group_143" data-name="Group 143" transform="translate(6.152 6.191)">
      <g id="Group_135" data-name="Group 135">
        <path id="Path_228" data-name="Path 228" d="M199.967,206.778h-23.7a.679.679,0,0,1,0-1.358h23.7a.679.679,0,0,1,0,1.358Z" transform="translate(-175.588 -205.42)" fill="#e6d1f9"/>
      </g>
      <g id="Group_136" data-name="Group 136" transform="translate(0 4.746)">
        <path id="Path_229" data-name="Path 229" d="M190.218,216.669H176.266a.679.679,0,0,1,0-1.357h13.951a.679.679,0,1,1,0,1.357Z" transform="translate(-175.588 -215.312)" fill="#e6d1f9"/>
      </g>
      <g id="Group_137" data-name="Group 137" transform="translate(0 9.492)">
        <path id="Path_230" data-name="Path 230" d="M201.114,226.56H176.266a.679.679,0,0,1,0-1.357h24.847a.679.679,0,1,1,0,1.357Z" transform="translate(-175.588 -225.203)" fill="#e6d1f9"/>
      </g>
      <g id="Group_138" data-name="Group 138" transform="translate(0 14.238)">
        <path id="Path_231" data-name="Path 231" d="M179.13,236.451h-2.864a.679.679,0,0,1,0-1.357h2.864a.679.679,0,1,1,0,1.357Z" transform="translate(-175.588 -235.094)" fill="#e6d1f9"/>
      </g>
      <g id="Group_139" data-name="Group 139" transform="translate(16.856 4.746)">
        <path id="Path_232" data-name="Path 232" d="M213.137,216.669H211.4a.679.679,0,0,1,0-1.357h1.742a.679.679,0,0,1,0,1.357Z" transform="translate(-210.717 -215.312)" fill="#e6d1f9"/>
      </g>
      <g id="Group_140" data-name="Group 140" transform="translate(21.641 4.746)">
        <path id="Path_233" data-name="Path 233" d="M232.747,216.669H221.368a.679.679,0,0,1,0-1.357h11.379a.679.679,0,1,1,0,1.357Z" transform="translate(-220.69 -215.312)" fill="#e6d1f9"/>
      </g>
      <g id="Group_141" data-name="Group 141" transform="translate(26.662)">
        <path id="Path_234" data-name="Path 234" d="M238.19,206.778h-6.357a.679.679,0,0,1,0-1.358h6.357a.679.679,0,1,1,0,1.358Z" transform="translate(-231.154 -205.42)" fill="#e6d1f9"/>
      </g>
      <g id="Group_142" data-name="Group 142" transform="translate(5.737 14.238)">
        <path id="Path_235" data-name="Path 235" d="M191.087,236.451h-2.864a.679.679,0,1,1,0-1.357h2.864a.679.679,0,0,1,0,1.357Z" transform="translate(-187.544 -235.094)" fill="#e6d1f9"/>
      </g>
    </g>
  </g>
</svg>
