<svg xmlns="http://www.w3.org/2000/svg" width="10" height="12" viewBox="0 0 10 12">
  <g id="Icon" transform="translate(-2.294 -1.294)">
    <path id="Icon-2" data-name="Icon" d="M5.559,12a.446.446,0,0,1,0-.874H7.141c1.364,0,2.051-.757,2.051-2.251V3.126C9.192,1.632,8.5.874,7.141.874H2.855C1.49.874.8,1.632.8,3.126V8.874c0,1.494.692,2.251,2.056,2.251a.446.446,0,0,1,0,.874C1.069,12,0,10.829,0,8.874V3.126C0,1.166,1.069,0,2.855,0H7.141C8.926,0,9.995,1.171,10,3.126V8.874C10,10.829,8.936,12,7.145,12ZM2.995,8.975h0a.436.436,0,0,1,0-.869H7a.436.436,0,0,1,0,.869ZM7,6.437H2.99a.446.446,0,0,1,0-.874H7a.392.392,0,0,1,.384.2.476.476,0,0,1,0,.467.4.4,0,0,1-.341.206Zm-4-2.538a.446.446,0,0,1,0-.874H4.519a.446.446,0,0,1,0,.874Z" transform="translate(2.294 1.294)" fill="#525f77"/>
  </g>
</svg>
