<svg xmlns="http://www.w3.org/2000/svg" width="22" height="20" viewBox="0 0 22 20">
  <path id="Icon" d="M6.383,20A6.45,6.45,0,0,1,0,13.505V6.495A6.44,6.44,0,0,1,6.383,0h9.234A6.459,6.459,0,0,1,22,6.495V8.119a.785.785,0,0,1-.778.792l-.01-.019a.769.769,0,0,1-.55-.232.8.8,0,0,1-.228-.559v-1.6a4.909,4.909,0,0,0-4.817-4.9H6.383a4.909,4.909,0,0,0-4.817,4.9v7.01a4.908,4.908,0,0,0,4.817,4.9h9.234a4.908,4.908,0,0,0,4.817-4.9.787.787,0,0,1,1.566,0A6.46,6.46,0,0,1,15.617,20Zm2.471-8.911L4.32,7.4A.811.811,0,0,1,4.2,6.277a.76.76,0,0,1,1.09-.119L9.866,9.841a1.555,1.555,0,0,0,1.946,0l4.525-3.683h.01a.778.778,0,0,1,1.1.119A.8.8,0,0,1,17.32,7.4L12.8,11.089a3.1,3.1,0,0,1-3.941,0Z" fill="#29bcb0"/>
</svg>
