<svg xmlns="http://www.w3.org/2000/svg" width="23" height="21" viewBox="0 0 23 21">
  <path id="Icon" d="M6.674,21A6.757,6.757,0,0,1,0,14.18V6.819A6.748,6.748,0,0,1,6.674,0h9.653A6.769,6.769,0,0,1,23,6.819V8.525a.823.823,0,0,1-.815.832l-.01-.021a.8.8,0,0,1-.575-.244.838.838,0,0,1-.239-.588V6.819a5.143,5.143,0,0,0-5.035-5.145H6.674A5.142,5.142,0,0,0,1.638,6.819V14.18a5.142,5.142,0,0,0,5.036,5.145h9.653a5.143,5.143,0,0,0,5.035-5.145.822.822,0,0,1,1.638,0A6.769,6.769,0,0,1,16.327,21Zm7.9-5.785a.54.54,0,0,1-.307-.371.435.435,0,0,1,.182-.4l3.867-3.256a.848.848,0,0,0,0-1.386L14.45,6.575V6.568c-.286-.24-.23-.589.125-.783a1.14,1.14,0,0,1,.616-.118.985.985,0,0,1,.559.208L19.627,9.1a1.7,1.7,0,0,1,0,2.805L15.75,15.131a1.047,1.047,0,0,1-.651.206A1.13,1.13,0,0,1,14.576,15.215Z" fill="#d5d4d4"/>
</svg>
