<svg xmlns="http://www.w3.org/2000/svg" width="10" height="11" viewBox="0 0 10 11">
  <path id="Icon" d="M5.559,11a.4.4,0,0,1,0-.8H7.141A1.822,1.822,0,0,0,9.192,8.135V2.865A1.823,1.823,0,0,0,7.141.8H2.855A1.826,1.826,0,0,0,.8,2.865V8.135A1.826,1.826,0,0,0,2.855,10.2a.4.4,0,0,1,0,.8A2.63,2.63,0,0,1,0,8.135V2.865A2.628,2.628,0,0,1,2.855,0H7.141A2.636,2.636,0,0,1,10,2.865V8.135A2.628,2.628,0,0,1,7.145,11ZM2.995,8.227h0a.4.4,0,0,1,0-.8H7a.4.4,0,0,1,0,.8ZM7,5.9H2.99a.4.4,0,0,1,0-.8H7a.4.4,0,1,1,.044.8Zm-4-2.326a.4.4,0,0,1,0-.8H4.519a.4.4,0,0,1,0,.8Z" fill="#d5d4d4"/>
</svg>
