<svg id="Icon" xmlns="http://www.w3.org/2000/svg" width="29" height="32" viewBox="0 0 29 32">
  <rect id="Bounding_Box" data-name="Bounding Box" width="29" height="32" fill="none"/>
  <g id="Icon-2" data-name="Icon" transform="translate(6.332 4)">
    <ellipse id="Elipse" cx="5.5" cy="6" rx="5.5" ry="6" transform="translate(2.668)" fill="none" stroke="#172239" stroke-linecap="round" stroke-linejoin="round" stroke-miterlimit="10" stroke-width="1.714"/>
    <path id="Path" d="M0,4A3.514,3.514,0,0,1,.236,2.711,4.269,4.269,0,0,1,3.266.564,14.867,14.867,0,0,1,5.785.127a21.864,21.864,0,0,1,4.713,0,15.037,15.037,0,0,1,2.519.437,4.109,4.109,0,0,1,3.03,2.147,3.647,3.647,0,0,1,0,2.583,4.063,4.063,0,0,1-3.03,2.135,13.931,13.931,0,0,1-2.519.449,22.531,22.531,0,0,1-3.837.073,3.562,3.562,0,0,1-.876-.073,13.674,13.674,0,0,1-2.509-.449A4.08,4.08,0,0,1,.236,5.294,3.618,3.618,0,0,1,0,4Z" transform="translate(0 16)" fill="none" stroke="#172239" stroke-linecap="round" stroke-linejoin="round" stroke-miterlimit="10" stroke-width="1.714"/>
  </g>
</svg>
