<svg id="vuesax_broken_folder-open" data-name="vuesax/broken/folder-open" xmlns="http://www.w3.org/2000/svg" width="13.5" height="13.5" viewBox="0 0 13.5 13.5">
  <path id="Vector" d="M8.657,6.281H1.581A2.038,2.038,0,0,1-.126,5.686a2.365,2.365,0,0,1-.389-1.3V4.374L-.74,1.565A2.125,2.125,0,0,1-.284.033.423.423,0,0,1-.255,0,2.1,2.1,0,0,1,1.356-.75H8.882a2.089,2.089,0,0,1,1.6.744.48.48,0,0,1,.046.059,2.065,2.065,0,0,1,.446,1.52.422.422,0,1,1-.839-.09A1.23,1.23,0,0,0,9.857.56Q9.844.544,9.833.528a1.248,1.248,0,0,0-.95-.434H1.356A1.254,1.254,0,0,0,.383.553L.363.576A1.285,1.285,0,0,0,.1,1.488v.007L.325,4.3a1.764,1.764,0,0,0,.207.856c.15.187.493.279,1.049.279H8.657c.556,0,.9-.091,1.049-.279A1.763,1.763,0,0,0,9.913,4.3l.056-.716a.422.422,0,0,1,.841.066l-.056.72v.008a2.365,2.365,0,0,1-.389,1.3A2.038,2.038,0,0,1,8.657,6.281Z" transform="translate(1.631 6.516)" fill="#525f77"/>
  <path id="Vector-2" data-name="Vector" d="M9.229,5.4a.422.422,0,0,1-.422-.422V3.975c0-.883-.106-1.366-.355-1.614s-.731-.355-1.614-.355H5.4a1.157,1.157,0,0,1-1.1-.542L4.3,1.458l0,0L3.586.5a.747.747,0,0,0-.81-.4H2.063C1.18.094.7.2.448.448S.094,1.18.094,2.063v2.9a.422.422,0,0,1-.422.422A.422.422,0,0,1-.75,4.959v-2.9a3.065,3.065,0,0,1,.6-2.211,3.065,3.065,0,0,1,2.211-.6h.714a1.544,1.544,0,0,1,1.485.743l.718.96a.755.755,0,0,0,.15.169.62.62,0,0,0,.275.041H6.838a3.065,3.065,0,0,1,2.211.6,3.065,3.065,0,0,1,.6,2.211V4.982A.422.422,0,0,1,9.229,5.4Z" transform="translate(2.3 1.346)" fill="#525f77"/>
  <path id="Vector-3" data-name="Vector" d="M2.563.094H-.328A.422.422,0,0,1-.75-.328.422.422,0,0,1-.328-.75H2.563a.422.422,0,0,1,.422.422A.422.422,0,0,1,2.563.094Z" transform="translate(5.633 9.891)" fill="#525f77"/>
  <path id="Vector-4" data-name="Vector" d="M0,0H13.5V13.5H0Z" fill="none" opacity="0"/>
</svg>
