<svg xmlns="http://www.w3.org/2000/svg" width="14.025" height="14.025" viewBox="0 0 14.025 14.025">
  <g id="vuesax_broken_monitor-recorder" data-name="vuesax/broken/monitor-recorder" transform="translate(-492 -188)">
    <path id="Vector" d="M-.312,2.721A.438.438,0,0,1-.75,2.283,3.164,3.164,0,0,1-.1-.1,3.164,3.164,0,0,1,2.283-.75h.912a.438.438,0,0,1,.438.438.438.438,0,0,1-.438.438H2.283C1.32.127.792.243.518.518s-.391.8-.391,1.765A.438.438,0,0,1-.312,2.721Z" transform="translate(493.48 189.48)" fill="#525f77"/>
    <path id="Vector-2" data-name="Vector" d="M8.781,3.884h-6.5A3.164,3.164,0,0,1-.1,3.236,3.164,3.164,0,0,1-.75.851V-.312A.438.438,0,0,1-.312-.75a.438.438,0,0,1,.438.438V.851c0,.963.117,1.491.391,1.765s.8.391,1.765.391h6.5c.964,0,1.492-.116,1.766-.389s.391-.8.391-1.767V.331a.438.438,0,0,1,.877,0v.52a3.165,3.165,0,0,1-.648,2.388A3.316,3.316,0,0,1,8.781,3.884Z" transform="translate(493.48 194.617)" fill="#525f77"/>
    <path id="Vector-3" data-name="Vector" d="M-.312,2.92A.438.438,0,0,1-.75,2.482V-.312A.438.438,0,0,1-.312-.75a.438.438,0,0,1,.438.438V2.482A.438.438,0,0,1-.312,2.92Z" transform="translate(499.324 198.375)" fill="#525f77"/>
    <path id="Vector-4" data-name="Vector" d="M11.376.127H-.312A.438.438,0,0,1-.75-.312.438.438,0,0,1-.312-.75H11.376a.438.438,0,0,1,.438.438A.438.438,0,0,1,11.376.127Z" transform="translate(493.48 195.909)" fill="#525f77"/>
    <path id="Vector-5" data-name="Vector" d="M4.948.127H-.312A.438.438,0,0,1-.75-.312.438.438,0,0,1-.312-.75H4.948a.438.438,0,0,1,.438.438A.438.438,0,0,1,4.948.127Z" transform="translate(496.695 201.168)" fill="#525f77"/>
    <path id="Vector-6" data-name="Vector" d="M3.545,4.428H.764A1.418,1.418,0,0,1-.75,2.914V.857A1.609,1.609,0,0,1,.857-.75H3.545A1.515,1.515,0,0,1,5.059.764v2.15A1.515,1.515,0,0,1,3.545,4.428ZM.857.127a.731.731,0,0,0-.73.73V2.914c0,.571.364.637.637.637H3.545a.638.638,0,0,0,.637-.637V.764A.638.638,0,0,0,3.545.127Z" transform="translate(498.892 189.486)" fill="#525f77"/>
    <path id="Vector-7" data-name="Vector" d="M.712,2.967a.99.99,0,0,1-.568-.2l-.708-.5A.438.438,0,0,1-.75,1.913V.3A.438.438,0,0,1-.564-.059l.707-.5,0,0A.993.993,0,0,1,.709-.75a.791.791,0,0,1,.761.886V2.082A.789.789,0,0,1,.712,2.967ZM.127,1.685l.467.328V.2L.127.528Z" transform="translate(503.824 190.219)" fill="#525f77"/>
    <path id="Vector-8" data-name="Vector" d="M0,0H14.025V14.025H0Z" transform="translate(492 188)" fill="none" opacity="0"/>
  </g>
</svg>
