<svg xmlns="http://www.w3.org/2000/svg" width="13" height="13" viewBox="0 0 13 13">
  <g id="vuesax_broken_gallery" data-name="vuesax/broken/gallery" transform="translate(-364 -252)">
    <g id="gallery" transform="translate(364 252)">
      <path id="Vector" d="M6.7,10.9H3.448a4.286,4.286,0,0,1-3.2-1,4.286,4.286,0,0,1-1-3.2V5.609A.406.406,0,0,1-.344,5.2a.406.406,0,0,1,.406.406V6.7A3.565,3.565,0,0,0,.824,9.322a3.565,3.565,0,0,0,2.624.761H6.7a3.565,3.565,0,0,0,2.624-.761A3.565,3.565,0,0,0,10.083,6.7V3.448A3.565,3.565,0,0,0,9.322.824,3.565,3.565,0,0,0,6.7.063H3.448A3.565,3.565,0,0,0,.824.824,3.565,3.565,0,0,0,.063,3.448a.406.406,0,0,1-.406.406A.406.406,0,0,1-.75,3.448a4.286,4.286,0,0,1,1-3.2,4.286,4.286,0,0,1,3.2-1H6.7a4.286,4.286,0,0,1,3.2,1,4.286,4.286,0,0,1,1,3.2V6.7a4.286,4.286,0,0,1-1,3.2A4.286,4.286,0,0,1,6.7,10.9Z" transform="translate(1.427 1.427)" fill="#525f77"/>
      <path id="Vector-2" data-name="Vector" d="M.74,2.229A1.49,1.49,0,0,1,.74-.75a.406.406,0,0,1,.406.406A.406.406,0,0,1,.74.063.677.677,0,1,0,1.417.74a.406.406,0,1,1,.812,0A1.491,1.491,0,0,1,.74,2.229Z" transform="translate(4.135 3.594)" fill="#525f77"/>
      <path id="Vector-3" data-name="Vector" d="M-.343,3.827a.406.406,0,0,1-.338-.18A.406.406,0,0,1-.57,3.084L2.1,1.291a1.635,1.635,0,0,1,1.921.1l0,0,.177.155a.8.8,0,0,0,1,0L7.452-.381a1.609,1.609,0,0,1,2.057,0l.883.758a.406.406,0,1,1-.529.616L8.979.236a.8.8,0,0,0-1,0L5.727,2.169a1.609,1.609,0,0,1-2.057,0l0,0L3.49,2.011a.81.81,0,0,0-.937-.045L-.117,3.758A.4.4,0,0,1-.343,3.827Z" transform="translate(1.79 6.843)" fill="#525f77"/>
      <path id="Vector-4" data-name="Vector" d="M0,0H13V13H0Z" fill="none" opacity="0"/>
    </g>
  </g>
</svg>
