<svg xmlns="http://www.w3.org/2000/svg" width="14.002" height="14.002" viewBox="0 0 14.002 14.002">
  <g id="vuesax_broken_task" data-name="vuesax/broken/task" transform="translate(-428 -316)">
    <g id="task" transform="translate(428 316)">
      <path id="Vector" d="M5.522.125H-.312A.438.438,0,0,1-.75-.312.438.438,0,0,1-.312-.75H5.522a.438.438,0,0,1,.438.438A.438.438,0,0,1,5.522.125Z" transform="translate(6.73 11.689)" fill="#525f77"/>
      <path id="Vector-2" data-name="Vector" d="M.271.125H-.312A.438.438,0,0,1-.75-.312.438.438,0,0,1-.312-.75H.271a.438.438,0,0,1,.438.438A.438.438,0,0,1,.271.125Z" transform="translate(11.981 7.605)" fill="#525f77"/>
      <path id="Vector-3" data-name="Vector" d="M2.891.125h-3.2A.438.438,0,0,1-.75-.312.438.438,0,0,1-.312-.75h3.2a.438.438,0,0,1,.438.438A.438.438,0,0,1,2.891.125Z" transform="translate(6.73 7.605)" fill="#525f77"/>
      <path id="Vector-4" data-name="Vector" d="M5.522.125H-.312A.438.438,0,0,1-.75-.312.438.438,0,0,1-.312-.75H5.522a.438.438,0,0,1,.438.438A.438.438,0,0,1,5.522.125Z" transform="translate(6.73 3.521)" fill="#525f77"/>
      <path id="Vector-5" data-name="Vector" d="M.271,1.875a.436.436,0,0,1-.309-.128l-.583-.583a.438.438,0,0,1,0-.619A.438.438,0,0,1,0,.545L.271.819,1.712-.622a.438.438,0,0,1,.619,0,.438.438,0,0,1,0,.619L.58,1.747A.436.436,0,0,1,.271,1.875Z" transform="translate(2.063 2.354)" fill="#525f77"/>
      <path id="Vector-6" data-name="Vector" d="M.271,1.875a.436.436,0,0,1-.309-.128l-.583-.583a.438.438,0,0,1,0-.619A.438.438,0,0,1,0,.545L.271.819,1.712-.622a.438.438,0,0,1,.619,0,.438.438,0,0,1,0,.619L.58,1.747A.436.436,0,0,1,.271,1.875Z" transform="translate(2.063 6.438)" fill="#525f77"/>
      <path id="Vector-7" data-name="Vector" d="M.271,1.875a.436.436,0,0,1-.309-.128l-.583-.583a.438.438,0,0,1,0-.619A.438.438,0,0,1,0,.545L.271.819,1.712-.622a.438.438,0,0,1,.619,0,.438.438,0,0,1,0,.619L.58,1.747A.436.436,0,0,1,.271,1.875Z" transform="translate(2.063 10.522)" fill="#525f77"/>
      <path id="Vector-8" data-name="Vector" d="M0,0H14V14H0Z" fill="none" opacity="0"/>
    </g>
  </g>
</svg>
