<svg xmlns="http://www.w3.org/2000/svg" width="24" height="24" viewBox="0 0 24 24">
  <g id="vuesax_broken_shopping-cart" data-name="vuesax/broken/shopping-cart" transform="translate(-622 -188)">
    <g id="shopping-cart">
      <path id="Vector" d="M13.45,13.87H2.8A3.546,3.546,0,0,1-.737,10.026a.75.75,0,1,1,1.494.128A2.046,2.046,0,0,0,2.8,12.37H13.45a2.135,2.135,0,0,0,2.062-1.918l.54-7.5A2.043,2.043,0,0,0,15.521,1.4,2.06,2.06,0,0,0,13.99.75H1.08A.75.75,0,0,1,.33,0a.75.75,0,0,1,.75-.75H13.99a3.523,3.523,0,0,1,3.558,3.814l-.54,7.5A3.634,3.634,0,0,1,13.45,13.87Z" transform="translate(626.74 191.88)" fill="#292d32"/>
      <path id="Vector-2" data-name="Vector" d="M3.081,8.8l-.063,0a.75.75,0,0,1-.686-.809l.5-6.05A1.1,1.1,0,0,0,1.74.75H0A.75.75,0,0,1-.75,0,.75.75,0,0,1,0-.75H1.74A2.6,2.6,0,0,1,4.327,2.063l-.5,6.049A.75.75,0,0,1,3.081,8.8Z" transform="translate(624 190)" fill="#292d32"/>
      <path id="Vector-3" data-name="Vector" d="M1.25-.75a2,2,0,1,1-2,2A2,2,0,0,1,1.25-.75Zm0,2.5a.5.5,0,1,0-.5-.5A.5.5,0,0,0,1.25,1.75Z" transform="translate(637 207.5)" fill="#292d32"/>
      <path id="Vector-4" data-name="Vector" d="M1.25-.75a2,2,0,1,1-2,2A2,2,0,0,1,1.25-.75Zm0,2.5a.5.5,0,1,0-.5-.5A.5.5,0,0,0,1.25,1.75Z" transform="translate(629 207.5)" fill="#292d32"/>
      <path id="Vector-5" data-name="Vector" d="M12,.75H0A.75.75,0,0,1-.75,0,.75.75,0,0,1,0-.75H12a.75.75,0,0,1,.75.75A.75.75,0,0,1,12,.75Z" transform="translate(631 196)" fill="#292d32"/>
      <path id="Vector-6" data-name="Vector" d="M0,0H24V24H0Z" transform="translate(622 188)" fill="none" opacity="0"/>
    </g>
  </g>
</svg>
