<svg xmlns="http://www.w3.org/2000/svg" width="24" height="24" viewBox="0 0 24 24">
  <g id="vuesax_broken_home-2" data-name="vuesax/broken/home-2" transform="translate(-620 -188)">
    <g id="home-2">
      <path id="Vector" d="M15.79,20.723H4.21a4.971,4.971,0,0,1-4.96-4.97V8.343A5.52,5.52,0,0,1,1.17,4.431L6.559.231A4.966,4.966,0,0,1,9.484-.748,4.99,4.99,0,0,1,12.45.088l6.18,4.33a5.473,5.473,0,0,1,2.12,4.064.75.75,0,0,1-1.5,0,4,4,0,0,0-1.479-2.835L11.59,1.317a3.733,3.733,0,0,0-4.109.1l-5.389,4.2A4.037,4.037,0,0,0,.75,8.343v7.41a3.469,3.469,0,0,0,3.46,3.47H15.79a3.464,3.464,0,0,0,3.46-3.46v-3.1a.75.75,0,0,1,1.5,0v3.1A4.966,4.966,0,0,1,15.79,20.723Z" transform="translate(622 190.017)" fill="#29bcb0"/>
      <path id="Vector-2" data-name="Vector" d="M0,3.75A.75.75,0,0,1-.75,3V0A.75.75,0,0,1,0-.75.75.75,0,0,1,.75,0V3A.75.75,0,0,1,0,3.75Z" transform="translate(632 202.99)" fill="#29bcb0"/>
      <path id="Vector-3" data-name="Vector" d="M0,0H24V24H0Z" transform="translate(620 188)" fill="none" opacity="0"/>
    </g>
  </g>
</svg>
