<svg xmlns="http://www.w3.org/2000/svg" width="22.325" height="22.326" viewBox="0 0 22.325 22.326">
  <g id="vuesax_broken_setting-2" data-name="vuesax/broken/setting-2" transform="translate(-300 -190)">
    <g id="setting-2" transform="translate(300 190)">
      <path id="Vector" d="M2.791,6.181A3.391,3.391,0,1,1,6.181,2.791a.6.6,0,0,1-1.2,0A2.191,2.191,0,1,0,2.791,4.981a2.1,2.1,0,0,0,.845-.172.6.6,0,1,1,.487,1.1A3.257,3.257,0,0,1,2.791,6.181Z" transform="translate(8.372 8.372)" fill="#29bcb0"/>
      <path id="Vector-2" data-name="Vector" d="M7.748,17.454A2.17,2.17,0,0,1,5.884,16.39l0-.006-.1-.177c-.294-.507-.664-.8-1.016-.8s-.716.29-1,.794l-.1.179,0,.006a2.153,2.153,0,0,1-2.94.769L-.3,16.575a.6.6,0,0,1-.219-.82.6.6,0,0,1,.82-.219l1.014.586.007,0a.952.952,0,0,0,1.3-.346l.1-.173a2.417,2.417,0,0,1,2.042-1.395,2.429,2.429,0,0,1,2.057,1.394l.1.173a.952.952,0,0,0,1.3.347l.009-.005L9.832,15.2a1.167,1.167,0,0,0,.43-1.588,2.424,2.424,0,0,1-.186-2.473,2.422,2.422,0,0,1,2.232-1.078,1.169,1.169,0,0,0,1.167-1.167V7.256a1.169,1.169,0,0,0-1.167-1.167A2.345,2.345,0,0,1,9.951,4.744a2.567,2.567,0,0,1,.311-2.208A1.165,1.165,0,0,0,9.832.949L9.08.522A.6.6,0,0,1,8.855-.3a.6.6,0,0,1,.818-.225l.753.428A2.368,2.368,0,0,1,11.3,3.135a1.449,1.449,0,0,0-.231,1.178c.14.367.59.575,1.236.575a2.37,2.37,0,0,1,2.367,2.367V8.893a2.37,2.37,0,0,1-2.367,2.367,1.322,1.322,0,0,0-1.192.477,1.325,1.325,0,0,0,.185,1.273,2.367,2.367,0,0,1-.873,3.231l-1.6.918A2.105,2.105,0,0,1,7.748,17.454Z" transform="translate(6.4 3.088)" fill="#29bcb0"/>
      <path id="Vector-3" data-name="Vector" d="M3.292,14.618a.6.6,0,0,1-.519-.9,1.325,1.325,0,0,0,.185-1.273,1.322,1.322,0,0,0-1.192-.477A2.37,2.37,0,0,1-.6,9.6V7.962A2.37,2.37,0,0,1,1.767,5.594,1.322,1.322,0,0,0,2.96,5.116a1.311,1.311,0,0,0-.186-1.261l0,0A2.374,2.374,0,0,1,3.646.613L5.252-.306A2.106,2.106,0,0,1,6.863-.532a2.138,2.138,0,0,1,1.321,1l.1.178c.294.507.665.8,1.016.8s.716-.29,1-.794a.6.6,0,0,1,1.041.6,2.419,2.419,0,0,1-2.043,1.4A2.429,2.429,0,0,1,7.248,1.249l-.1-.177A.945.945,0,0,0,6.562.63a.914.914,0,0,0-.7.1L5.851.734l-1.609.921a1.172,1.172,0,0,0-.429,1.6A2.41,2.41,0,0,1,4,5.714,2.453,2.453,0,0,1,1.767,6.794,1.169,1.169,0,0,0,.6,7.962V9.6a1.169,1.169,0,0,0,1.167,1.167A2.422,2.422,0,0,1,4,11.845a2.425,2.425,0,0,1-.187,2.474A.6.6,0,0,1,3.292,14.618Z" transform="translate(1.86 2.382)" fill="#29bcb0"/>
      <path id="Vector-4" data-name="Vector" d="M0,0H22.325V22.325H0Z" fill="none" opacity="0"/>
    </g>
  </g>
</svg>
