<svg xmlns="http://www.w3.org/2000/svg" width="24" height="24" viewBox="0 0 24 24">
  <g id="vuesax_broken_unlock" data-name="vuesax/broken/unlock" transform="translate(-236 -252)">
    <g id="unlock">
      <path id="Vector" d="M0,2.5A2.5,2.5,0,1,0,2.5,0" transform="translate(245.5 265.5)" fill="none" stroke="#292d32" stroke-linecap="round" stroke-linejoin="round" stroke-width="1.5"/>
      <path id="Vector-2" data-name="Vector" d="M20,7V5c0-4-1-5-5-5H5C1,0,0,1,0,5V7c0,4,1,5,5,5H15a6.372,6.372,0,0,0,3.71-.75" transform="translate(238 262)" fill="none" stroke="#292d32" stroke-linecap="round" stroke-linejoin="round" stroke-width="1.5"/>
      <path id="Vector-3" data-name="Vector" d="M0,8V6C0,2.69,1,0,6,0c4.5,0,6,2,6,5" transform="translate(242 254)" fill="none" stroke="#292d32" stroke-linecap="round" stroke-linejoin="round" stroke-width="1.5"/>
      <path id="Vector-4" data-name="Vector" d="M0,0H24V24H0Z" transform="translate(236 252)" fill="none" opacity="0"/>
    </g>
  </g>
</svg>
