<svg xmlns="http://www.w3.org/2000/svg" width="24" height="24" viewBox="0 0 24 24">
  <g id="vuesax_broken_setting-2" data-name="vuesax/broken/setting-2" transform="translate(-298.163 -189.163)">
    <g id="vuesax_broken_notification" data-name="vuesax/broken/notification" transform="translate(126.163 1.163)">
      <g id="notification">
        <path id="Vector" d="M8.041,17.62A21.649,21.649,0,0,1,1.168,16.5,2.782,2.782,0,0,1-.594,14.855a2.732,2.732,0,0,1,.277-2.382l1.15-1.91A4.067,4.067,0,0,0,1.3,8.89V6A6.75,6.75,0,1,1,14.8,6V8.89a.75.75,0,0,1-1.5,0V6A5.25,5.25,0,1,0,2.8,6V8.89a5.546,5.546,0,0,1-.676,2.444L.968,13.247a1.264,1.264,0,0,0-.154,1.092,1.276,1.276,0,0,0,.832.741,20.034,20.034,0,0,0,12.792,0,1.236,1.236,0,0,0,.775-.749,1.251,1.251,0,0,0-.1-1.084.75.75,0,0,1,1.286-.772A2.752,2.752,0,0,1,14.911,16.5,21.645,21.645,0,0,1,8.041,17.62Z" transform="translate(175.974 190.91)" fill="#29bcb0"/>
        <path id="Vector-2" data-name="Vector" d="M3.7,2.01a.749.749,0,0,1-.209-.03A5.265,5.265,0,0,0,2.65,1.8a6.58,6.58,0,0,0-.814-.052A5.823,5.823,0,0,0,.209,1.98a.75.75,0,0,1-.763-.214A.75.75,0,0,1-.7.986,2.72,2.72,0,0,1,1.85-.75,2.72,2.72,0,0,1,4.4.986.75.75,0,0,1,3.7,2.01Z" transform="translate(182.17 189.94)" fill="#29bcb0"/>
        <path id="Vector-3" data-name="Vector" d="M3,3.75A3.775,3.775,0,0,1,.35,2.65,3.775,3.775,0,0,1-.75,0H.75a2.265,2.265,0,0,0,.66,1.59A2.265,2.265,0,0,0,3,2.25,2.253,2.253,0,0,0,5.25,0h1.5A3.754,3.754,0,0,1,3,3.75Z" transform="translate(181.02 207.06)" fill="#29bcb0"/>
        <path id="Vector-4" data-name="Vector" d="M0,0H24V24H0Z" transform="translate(172 188)" fill="none" opacity="0"/>
      </g>
    </g>
  </g>
</svg>
