<svg id="add-square" xmlns="http://www.w3.org/2000/svg" width="30.019" height="30.019" viewBox="0 0 30.019 30.019">
  <path id="Vector" d="M1.451,1.126H.188a.938.938,0,1,1,0-1.876H1.451a.938.938,0,1,1,0,1.876Z" transform="translate(18.561 14.822)" fill="#fff"/>
  <path id="Vector-2" data-name="Vector" d="M4.954,1.126H.188a.938.938,0,1,1,0-1.876H4.954a.938.938,0,1,1,0,1.876Z" transform="translate(9.818 14.822)" fill="#fff"/>
  <path id="Vector-3" data-name="Vector" d="M.188,11.133a.938.938,0,0,1-.938-.938V.188a.938.938,0,1,1,1.876,0V10.195A.938.938,0,0,1,.188,11.133Z" transform="translate(14.822 9.818)" fill="#fff"/>
  <path id="Vector-4" data-name="Vector" d="M16.449,26.142h-7.5c-3.465,0-5.812-.733-7.386-2.307S-.75,19.914-.75,16.449V14a.938.938,0,0,1,1.876,0v2.452c0,2.935.559,4.861,1.758,6.06s3.125,1.758,6.06,1.758h7.5c2.935,0,4.861-.559,6.06-1.758s1.758-3.125,1.758-6.06v-7.5c0-2.935-.559-4.861-1.758-6.06s-3.125-1.758-6.06-1.758h-7.5c-2.935,0-4.861.559-6.06,1.758S1.126,6.009,1.126,8.944a.938.938,0,0,1-1.876,0c0-3.465.733-5.812,2.307-7.386S5.479-.75,8.944-.75h7.5c3.465,0,5.812.733,7.386,2.307s2.307,3.921,2.307,7.386v7.5c0,3.465-.733,5.812-2.307,7.386S19.914,26.142,16.449,26.142Z" transform="translate(2.314 2.314)" fill="#fff"/>
  <path id="Vector-5" data-name="Vector" d="M0,0H30.019V30.019H0Z" fill="none" opacity="0"/>
</svg>
