<svg xmlns="http://www.w3.org/2000/svg" width="27" height="27" viewBox="0 0 27 27">
  <g id="add" transform="translate(0 13.5) rotate(-45)">
    <g id="vuesax_broken_add" data-name="vuesax/broken/add" transform="translate(-160.16 -533.512) rotate(45)">
      <g id="add-2" data-name="add">
        <path id="Vector" d="M0,12.75A.75.75,0,0,1-.75,12V0A.75.75,0,0,1,0-.75.75.75,0,0,1,.75,0V12A.75.75,0,0,1,0,12.75Z" transform="translate(504 258)" fill="#525f77"/>
        <path id="Vector-2" data-name="Vector" d="M2,.75H0A.75.75,0,0,1-.75,0,.75.75,0,0,1,0-.75H2A.75.75,0,0,1,2.75,0,.75.75,0,0,1,2,.75Z" transform="translate(508 264)" fill="#525f77"/>
        <path id="Vector-3" data-name="Vector" d="M5.66.75H0A.75.75,0,0,1-.75,0,.75.75,0,0,1,0-.75H5.66A.75.75,0,0,1,6.41,0,.75.75,0,0,1,5.66.75Z" transform="translate(498 264)" fill="#525f77"/>
        <path id="Vector-4" data-name="Vector" d="M0,12.75A.75.75,0,0,1-.75,12V0A.75.75,0,0,1,0-.75.75.75,0,0,1,.75,0V12A.75.75,0,0,1,0,12.75Z" transform="translate(504 258)" fill="#525f77"/>
      </g>
    </g>
  </g>
</svg>
