<svg id="arrow-down" xmlns="http://www.w3.org/2000/svg" width="14" height="14" viewBox="0 0 14 14">
  <path id="Vector" d="M4.3,4.265A1.581,1.581,0,0,1,3.176,3.8L-.622,0a.437.437,0,0,1,0-.619A.437.437,0,0,1,0-.622l3.8,3.8a.721.721,0,0,0,1.014,0L6.337,1.653a.438.438,0,1,1,.619.619L5.428,3.8A1.581,1.581,0,0,1,4.3,4.265Z" transform="translate(2.693 5.533)" fill="#525f77"/>
  <path id="Vector-2" data-name="Vector" d="M-.312.732A.436.436,0,0,1-.622.6a.438.438,0,0,1,0-.619l.607-.607a.438.438,0,0,1,.619,0A.438.438,0,0,1,.6,0L0,.6A.436.436,0,0,1-.312.732Z" transform="translate(11.326 5.533)" fill="#525f77"/>
  <path id="Vector-3" data-name="Vector" d="M0,0H14V14H0Z" fill="none" opacity="0"/>
</svg>
