<svg id="calendar-2" xmlns="http://www.w3.org/2000/svg" width="14.003" height="14.003" viewBox="0 0 14.003 14.003">
  <path id="Vector" d="M-.312,1.876A.438.438,0,0,1-.75,1.438V-.312A.438.438,0,0,1-.312-.75a.438.438,0,0,1,.438.438v1.75A.438.438,0,0,1-.312,1.876Z" transform="translate(4.98 1.479)" fill="#525f77"/>
  <path id="Vector-2" data-name="Vector" d="M-.312,1.876A.438.438,0,0,1-.75,1.438V-.312A.438.438,0,0,1-.312-.75a.438.438,0,0,1,.438.438v1.75A.438.438,0,0,1-.312,1.876Z" transform="translate(9.648 1.479)" fill="#525f77"/>
  <path id="Vector-3" data-name="Vector" d="M9.607.125H-.312A.438.438,0,0,1-.75-.312.438.438,0,0,1-.312-.75H9.607a.438.438,0,0,1,.438.438A.438.438,0,0,1,9.607.125Z" transform="translate(2.355 5.616)" fill="#525f77"/>
  <path id="Vector-4" data-name="Vector" d="M0,0H14V14H0Z" fill="none" opacity="0"/>
  <path id="Vector-5" data-name="Vector" d="M7.273,10.92H2.6A3.318,3.318,0,0,1,.06,9.977,3.424,3.424,0,0,1-.75,7.565a.438.438,0,0,1,.438-.438.438.438,0,0,1,.438.438A2.592,2.592,0,0,0,.7,9.382a2.492,2.492,0,0,0,1.9.662H7.273a2.492,2.492,0,0,0,1.9-.662,2.592,2.592,0,0,0,.576-1.817V2.6A2.592,2.592,0,0,0,9.177.788a2.492,2.492,0,0,0-1.9-.662H2.6A2.492,2.492,0,0,0,.7.788,2.592,2.592,0,0,0,.125,2.6V5.236a.438.438,0,0,1-.438.438A.438.438,0,0,1-.75,5.236V2.6A3.424,3.424,0,0,1,.06.192,3.318,3.318,0,0,1,2.6-.75H7.273A3.318,3.318,0,0,1,9.818.192a3.424,3.424,0,0,1,.81,2.413v4.96a3.424,3.424,0,0,1-.81,2.413A3.318,3.318,0,0,1,7.273,10.92Z" transform="translate(2.063 2.355)" fill="#525f77"/>
  <path id="Vector-6" data-name="Vector" d="M.083.667H.078A.583.583,0,1,1,.078-.5H.083a.583.583,0,1,1,0,1.167Z" transform="translate(6.921 7.91)" fill="#525f77"/>
  <path id="Vector-7" data-name="Vector" d="M.083.667H.078A.583.583,0,1,1,.078-.5H.083a.583.583,0,1,1,0,1.167Z" transform="translate(4.762 7.91)" fill="#525f77"/>
  <path id="Vector-8" data-name="Vector" d="M.083.667H.078A.583.583,0,1,1,.078-.5H.083a.583.583,0,1,1,0,1.167Z" transform="translate(4.762 9.661)" fill="#525f77"/>
</svg>
