<svg id="edit" xmlns="http://www.w3.org/2000/svg" width="16" height="16" viewBox="0 0 16 16">
  <g id="edit-2" data-name="edit">
    <path id="Vector" d="M8.417,6.25h-4A5.276,5.276,0,0,1,.48,5.02,5.276,5.276,0,0,1-.75,1.083V.07a.5.5,0,0,1,.5-.5.5.5,0,0,1,.5.5V1.083a4.388,4.388,0,0,0,.937,3.23,4.388,4.388,0,0,0,3.23.937h4a4.388,4.388,0,0,0,3.23-.937,4.388,4.388,0,0,0,.937-3.23V-.25a.5.5,0,0,1,.5-.5.5.5,0,0,1,.5.5V1.083a5.276,5.276,0,0,1-1.23,3.937A5.276,5.276,0,0,1,8.417,6.25Z" transform="translate(1.583 8.917)" fill="#525f77"/>
    <path id="Vector-2" data-name="Vector" d="M-.25,4.917a.5.5,0,0,1-.5-.5A5.276,5.276,0,0,1,.48.48,5.276,5.276,0,0,1,4.417-.75H5.75a.5.5,0,0,1,.5.5.5.5,0,0,1-.5.5H4.417a4.388,4.388,0,0,0-3.23.937A4.388,4.388,0,0,0,.25,4.417.5.5,0,0,1-.25,4.917Z" transform="translate(1.583 1.583)" fill="#525f77"/>
    <path id="Vector-3" data-name="Vector" d="M.722,10.382A1.475,1.475,0,0,1-.341,9.961a1.506,1.506,0,0,1-.39-1.3l.286-2A2.281,2.281,0,0,1,.137,5.5L5.391.243a2.507,2.507,0,0,1,4,0,2.507,2.507,0,0,1,0,4l-.7.7a.5.5,0,1,1-.707-.707l.7-.7a1.547,1.547,0,0,0,0-2.586A1.547,1.547,0,0,0,6.1.95L.844,6.2a1.334,1.334,0,0,0-.3.6L.259,8.807a.517.517,0,0,0,.11.45.53.53,0,0,0,.46.117l2-.286a1.4,1.4,0,0,0,.6-.3l2.6-2.6a.5.5,0,0,1,.707.707L4.138,9.5,4.132,9.5a2.339,2.339,0,0,1-1.157.576l-2.007.287A1.81,1.81,0,0,1,.722,10.382Z" transform="translate(4.949 1.417)" fill="#525f77"/>
    <path id="Vector-4" data-name="Vector" d="M3.044,3.543a.5.5,0,0,1-.137-.019,5.3,5.3,0,0,1-2.3-1.347A5.256,5.256,0,0,1-.732-.115.5.5,0,0,1-.385-.732a.5.5,0,0,1,.616.346A4.291,4.291,0,0,0,3.18,2.562a.5.5,0,0,1-.136.981Z" transform="translate(10.19 3.017)" fill="#525f77"/>
    <path id="Vector-5" data-name="Vector" d="M0,0H16V16H0Z" fill="none" opacity="0"/>
  </g>
</svg>
