<svg id="eye" xmlns="http://www.w3.org/2000/svg" width="16" height="16" viewBox="0 0 16 16">
  <g id="eye-2" data-name="eye">
    <path id="Vector" d="M2.064,4.878a.487.487,0,0,1,0-.975A1.839,1.839,0,1,0,.225,2.064,1.8,1.8,0,0,0,.536,3.089a.487.487,0,0,1-.8.55A2.775,2.775,0,0,1-.75,2.064,2.814,2.814,0,1,1,2.064,4.878Z" transform="translate(5.936 5.936)" fill="#525f77"/>
    <path id="Vector-2" data-name="Vector" d="M6.3,11.383A7.876,7.876,0,0,1-.22,7.331a4.1,4.1,0,0,1,0-4.031A7.876,7.876,0,0,1,6.3-.75,6.9,6.9,0,0,1,10.308.587a.506.506,0,0,1,.119.7.5.5,0,0,1-.7.119A5.907,5.907,0,0,0,6.3.258,6.9,6.9,0,0,0,.627,3.843a3.089,3.089,0,0,0,0,2.947A6.9,6.9,0,0,0,6.3,10.375,6.9,6.9,0,0,0,11.97,6.79a3.089,3.089,0,0,0,0-2.947.506.506,0,0,1,.153-.7.5.5,0,0,1,.693.154,4.1,4.1,0,0,1,0,4.031A7.876,7.876,0,0,1,6.3,11.383Z" transform="translate(1.702 2.687)" fill="#525f77"/>
    <path id="Vector-3" data-name="Vector" d="M0,0H16V16H0Z" fill="none" opacity="0"/>
  </g>
</svg>
