<svg id="Group_2902" data-name="Group 2902" xmlns="http://www.w3.org/2000/svg" xmlns:xlink="http://www.w3.org/1999/xlink" width="405.456" height="332.427" viewBox="0 0 405.456 332.427">
  <defs>
    <clipPath id="clip-path">
      <rect id="Rectangle_3095" data-name="Rectangle 3095" width="405.456" height="332.427" fill="none"/>
    </clipPath>
    <clipPath id="clip-path-7">
      <rect id="Rectangle_3081" data-name="Rectangle 3081" width="165.655" height="108.224" transform="translate(101.918 91.8)" fill="none"/>
    </clipPath>
    <clipPath id="clip-path-8">
      <rect id="Rectangle_3082" data-name="Rectangle 3082" width="27.089" height="10.379" transform="translate(202.241 35.955)" fill="none"/>
    </clipPath>
    <clipPath id="clip-path-9">
      <rect id="Rectangle_3083" data-name="Rectangle 3083" width="13.027" height="18.077" transform="translate(104.357 101.939)" fill="none"/>
    </clipPath>
    <clipPath id="clip-path-10">
      <rect id="Rectangle_3087" data-name="Rectangle 3087" width="38.592" height="52.712" transform="translate(117.46 144.091)" fill="none"/>
    </clipPath>
  </defs>
  <g id="Group_2901" data-name="Group 2901" clip-path="url(#clip-path)">
    <g id="Group_2876" data-name="Group 2876">
      <g id="Group_2875" data-name="Group 2875" clip-path="url(#clip-path)">
        <path id="Path_467" data-name="Path 467" d="M51.8,168.353c-.046-1.918-.115-3.814-.135-5.7l.281.281c-4.543.052-9.087.163-13.63.168l-13.63.065.514-.514-.055,11.519-.459-.459c2.246.018,4.486.008,6.738.057l6.773.115,13.749.287ZM38.433,174.46l-6.857.115c-2.291.049-4.595.039-6.892.057l-.457,0,0-.463-.055-11.519,0-.517.517,0,13.63.064c4.543.005,9.087.116,13.63.169l.284,0,0,.278c-.019,1.954-.088,3.9-.134,5.82l-.147,5.7Z" fill="#ebebeb"/>
        <path id="Path_468" data-name="Path 468" d="M36.591,182.879c-.046-1.918-.115-3.814-.135-5.7l.281.281c-4.543.052-9.087.163-13.63.168l-13.63.065.514-.514L9.936,188.7l-.459-.459c2.246.018,4.486.008,6.738.057l6.773.115,13.749.287Zm-13.365,6.107-6.857.115c-2.291.049-4.595.039-6.892.057l-.457,0,0-.463L8.963,177.18l0-.517.517,0,13.63.064c4.543.005,9.087.116,13.63.169l.284,0,0,.278c-.019,1.954-.088,3.9-.134,5.82l-.147,5.7Z" fill="#ebebeb"/>
        <path id="Path_469" data-name="Path 469" d="M67,182.879c-.046-1.918-.115-3.814-.135-5.7l.281.281c-4.543.052-9.087.163-13.63.168l-13.63.065.514-.514L40.35,188.7l-.459-.459c2.246.018,4.486.008,6.738.057l6.773.115,13.749.287ZM53.64,188.986l-6.857.115c-2.291.049-4.6.039-6.892.057l-.457,0,0-.463-.055-11.519,0-.517.517,0,13.63.064c4.543.005,9.087.116,13.63.169l.284,0,0,.278c-.019,1.954-.088,3.9-.134,5.82l-.147,5.7Z" fill="#ebebeb"/>
        <path id="Path_470" data-name="Path 470" d="M384.326,256.954c-.046-1.918-.115-3.814-.135-5.7l.281.281c-4.543.052-9.087.163-13.63.168l-13.63.065.514-.514-.055,11.519-.459-.459c2.246.018,4.486.008,6.738.057l6.773.115,13.749.287Zm-13.365,6.107-6.857.115c-2.291.049-4.6.039-6.892.057l-.457,0,0-.463-.055-11.519,0-.517.517,0,13.63.064c4.543.005,9.087.116,13.63.169l.284,0,0,.278c-.019,1.954-.088,3.9-.134,5.82l-.147,5.7Z" fill="#ebebeb"/>
        <path id="Path_471" data-name="Path 471" d="M368.068,24.832c-.046-1.918-.115-3.814-.135-5.7l.281.281c-4.543.052-9.087.163-13.63.168l-13.63.065.514-.514-.055,11.519-.459-.459c2.246.018,4.486.008,6.738.057l6.773.115,13.749.287ZM354.7,30.939l-6.857.115c-2.291.049-4.6.039-6.892.057l-.457,0,0-.463-.055-11.519,0-.517.517,0,13.63.064c4.543,0,9.087.116,13.63.169l.284,0,0,.278c-.019,1.954-.088,3.9-.134,5.82l-.147,5.7Z" fill="#ebebeb"/>
        <path id="Path_472" data-name="Path 472" d="M383.275,39.357c-.046-1.918-.115-3.814-.135-5.7l.281.281c-4.543.052-9.087.163-13.63.168l-13.63.065.514-.514-.055,11.519-.459-.459c2.246.018,4.486.008,6.738.057l6.773.115,13.749.287ZM369.91,45.464l-6.857.115c-2.292.049-4.6.039-6.892.057l-.457,0,0-.463-.055-11.519,0-.517.517,0,13.63.064c4.543.005,9.087.116,13.63.169l.284,0,0,.278c-.019,1.954-.088,3.9-.135,5.82l-.146,5.7Z" fill="#ebebeb"/>
        <path id="Path_473" data-name="Path 473" d="M59.583,21.747c-.071-1.918-.177-3.814-.207-5.7l.432.281c-6.985.052-13.969.163-20.954.168L17.9,16.562l.791-.514-.085,11.519-.706-.459c3.453.018,6.9.008,10.359.057l10.413.115,21.136.287ZM39.037,27.854,28.5,27.969c-3.522.049-7.063.039-10.6.057l-.7,0,0-.463L17.11,16.048l0-.517.794,0,20.954.064c6.985.005,13.969.116,20.954.169l.436,0,0,.278c-.029,1.954-.136,3.9-.207,5.82l-.225,5.7Z" fill="#ebebeb"/>
        <path id="Path_474" data-name="Path 474" d="M247.133,169.637c.046,1.918.115,3.814.135,5.7l-.281-.281c4.543-.052,9.086-.163,13.63-.168l13.63-.065-.514.514.055-11.519.459.459c-2.246-.018-4.486-.008-6.738-.057l-6.773-.115-13.749-.287ZM260.5,163.53l6.857-.115c2.291-.049,4.6-.039,6.892-.057l.457,0,0,.462.055,11.519,0,.517-.517,0-13.63-.064c-4.544,0-9.087-.116-13.63-.169l-.284,0,0-.278c.019-1.954.088-3.9.135-5.82l.146-5.7Z" fill="#ebebeb"/>
        <path id="Path_475" data-name="Path 475" d="M262.34,155.112c.046,1.918.115,3.814.134,5.7l-.28-.281c4.543-.052,9.086-.163,13.63-.168l13.63-.065-.514.514.055-11.519.459.459c-2.246-.018-4.486-.008-6.738-.057l-6.773-.115-13.75-.287Zm13.365-6.107,6.857-.115c2.291-.049,4.6-.039,6.892-.057l.457,0,0,.463.055,11.519,0,.517-.517,0-13.63-.064c-4.544-.005-9.087-.116-13.63-.169l-.284,0,0-.278c.019-1.954.088-3.9.134-5.82l.146-5.7Z" fill="#ebebeb"/>
        <path id="Path_476" data-name="Path 476" d="M310.011,26.48l-73.082,86.13L348.06,132.836Z" fill="#3b459c"/>
        <path id="Path_477" data-name="Path 477" d="M307.474,40.422l-57.2,67.415,86.985,15.831Z" fill="#fff"/>
        <path id="Path_478" data-name="Path 478" d="M299.1,61.418l8.812,1.6-6.5,32.366L293.783,94Z" fill="#3b459c"/>
        <rect id="Rectangle_3074" data-name="Rectangle 3074" width="7.745" height="7.745" transform="translate(291.659 105.689) rotate(-79.684)" fill="#3b459c"/>
        <path id="Path_479" data-name="Path 479" d="M95.936,178.5l-27.7,67.656,72.442-9.838Z" transform="translate(-13 -3.868)" fill="#3b459c"/>
        <path id="Path_480" data-name="Path 480" d="M97.17,187.591,75.488,240.546l56.7-7.7Z" transform="translate(-13 -3.868)" fill="#fff"/>
        <path id="Path_481" data-name="Path 481" d="M96.227,202.191l5.744-.78,2.488,21.221-4.97.675Z" transform="translate(-13 -3.868)" fill="#3b459c"/>
        <rect id="Rectangle_3075" data-name="Rectangle 3075" width="5.013" height="5.013" transform="translate(86.851 222.092) rotate(-7.739)" fill="#3b459c"/>
      </g>
    </g>
    <g id="Group_2878" data-name="Group 2878">
      <g id="Group_2877" data-name="Group 2877" clip-path="url(#clip-path)">
        <path id="Path_482" data-name="Path 482" d="M374.857,318.006c0,7.965-77.065,14.421-172.129,14.421S30.6,325.971,30.6,318.006s77.064-14.421,172.128-14.421,172.129,6.457,172.129,14.421" fill="#ebebeb"/>
      </g>
    </g>
    <g id="Group_2880" data-name="Group 2880">
      <g id="Group_2879" data-name="Group 2879" clip-path="url(#clip-path)">
        <path id="Path_483" data-name="Path 483" d="M360.892,260.446s8.172-29.333,14.7-39.3,18.691-20.9,18.691-20.9-.285,45.224-33.39,60.2" fill="#29bcb0"/>
        <path id="Path_484" data-name="Path 484" d="M361.478,259.944a140.657,140.657,0,0,0,7.449-14.212,99.276,99.276,0,0,1,4.059-15.425c.035-.094.166-.042.144.052-1.084,4.634-2.346,9.227-3.492,13.847,3.3-7.138,6.434-14.368,10.365-21.117a45.109,45.109,0,0,1,3.787-9.386c.043-.086.187-.04.145.051a60.075,60.075,0,0,0-2.55,7.041,70.236,70.236,0,0,1,6.209-8.577c.143-.168.429.018.289.2-5.255,6.705-8.88,14.333-12.335,22.056A117.366,117.366,0,0,0,385.8,221.655a.044.044,0,0,1,.072.049,105.324,105.324,0,0,1-10.98,14.236c-2.517,5.658-4.99,11.34-7.987,16.722,5.992-5.064,10.6-11.618,15.162-17.941a.137.137,0,0,1,.227.154c-4.565,6.939-9.289,13.472-15.856,18.611a73.049,73.049,0,0,1-4.386,6.854.35.35,0,0,1-.577-.4" fill="#263238"/>
        <path id="Path_485" data-name="Path 485" d="M358.359,263.087s14.689-27.047,10.422-53.27-8.836-35.56-8.836-35.56-23.09,40.786-1.586,88.83" fill="#29bcb0"/>
        <path id="Path_486" data-name="Path 486" d="M352.329,220.567A127.961,127.961,0,0,0,358,242.406c.041-9.623.225-19.247.482-28.869a74.427,74.427,0,0,1-2.772-17.922c-.007-.178.259-.167.273,0a102.179,102.179,0,0,0,2.573,15.422q.335-11.909.775-23.812a.1.1,0,0,1,.208,0c-.012,12.4-.006,24.8-.084,37.2a99.436,99.436,0,0,0,4.235-14.733.044.044,0,0,1,.085.014,57.687,57.687,0,0,1-4.335,16.765c-.057,7.927-.143,15.854-.32,23.779,2.485-8.427,5.14-16.589,5.858-25.494a.093.093,0,0,1,.186,0c-.2,9.821-2.726,19.79-5.965,29.025a.528.528,0,0,1-.164.233q-.111,4.346-.253,8.69a.323.323,0,0,1-.645-.012q-.172-8.889-.145-17.781a79.631,79.631,0,0,1-5.791-24.345c-.006-.073.118-.088.129-.015" fill="#263238"/>
        <path id="Path_487" data-name="Path 487" d="M353.336,216.384a50.583,50.583,0,0,1,1.026,7.145c0,.082-.12.093-.14.017a50.553,50.553,0,0,1-1.209-7.124c-.021-.184.287-.217.323-.038" fill="#263238"/>
        <path id="Path_488" data-name="Path 488" d="M361.925,196.613c.014-.081.138-.056.139.021a18.339,18.339,0,0,1-.736,4.929c-.036.13-.225.07-.2-.059.321-1.626.519-3.261.8-4.891" fill="#263238"/>
        <path id="Path_489" data-name="Path 489" d="M353,265.158s.6-28.233-7.5-42.267-21.535-21.184-21.535-21.184,5.417,49.768,29.035,63.451" fill="#29bcb0"/>
        <path id="Path_490" data-name="Path 490" d="M338.242,241.013a104.846,104.846,0,0,0,10.96,13.893q-2.424-8.66-5.606-17.027c-4.54-3.981-9.043-8.107-11.829-13.554a.077.077,0,0,1,.132-.078c3,4.825,7,8.685,11.215,12.4a218.4,218.4,0,0,0-11.274-24.552.179.179,0,0,1,.309-.181,134.076,134.076,0,0,1,7.069,12.886c-.759-3.018-1.365-6.1-2.143-9.1a.067.067,0,0,1,.128-.036,51.2,51.2,0,0,1,3.326,11.975,143.665,143.665,0,0,1,7.13,19.32c-.208-4.232-.473-8.446-.91-12.666-.008-.08.126-.1.141-.02a68.634,68.634,0,0,1,1.227,14.221q1.75,6.312,2.938,12.755c.021.115-.149.165-.178.049-.439-1.8-.917-3.582-1.405-5.361-.031-.013-.063-.008-.092-.036A57.367,57.367,0,0,1,338.2,241.039a.026.026,0,0,1,.044-.026" fill="#263238"/>
        <path id="Path_491" data-name="Path 491" d="M328.858,218.04c.9.975,1.729,2,2.6,3a23.155,23.155,0,0,1,2.332,2.724.047.047,0,0,1-.064.063,13.75,13.75,0,0,1-2.693-2.658,22.661,22.661,0,0,1-2.307-3.033.083.083,0,0,1,.13-.1" fill="#263238"/>
        <path id="Path_492" data-name="Path 492" d="M377.064,261.71l-1.021,9.052-3.077,27.363H346.137l-3.077-27.363-1.021-9.052h35.025Z" fill="#455a64"/>
        <path id="Path_493" data-name="Path 493" d="M377.064,261.71l-1.021,9.052H343.06l-1.021-9.052h35.025Z" fill="#37474f"/>
        <rect id="Rectangle_3078" data-name="Rectangle 3078" width="39.793" height="10.253" transform="translate(339.654 255.148)" fill="#455a64"/>
      </g>
    </g>
    <g id="Group_2882" data-name="Group 2882">
      <g id="Group_2881" data-name="Group 2881" clip-path="url(#clip-path)">
        <path id="Path_494" data-name="Path 494" d="M405.456,298.051c-129.88.612-275.577.617-405.456,0,129.88-.617,275.576-.612,405.456,0" fill="#263238"/>
      </g>
    </g>
    <g id="Group_2896" data-name="Group 2896">
      <g id="Group_2895" data-name="Group 2895" clip-path="url(#clip-path)">
        <path id="Path_495" data-name="Path 495" d="M267.578,109.955c0,49.746-38.012,90.073-84.9,90.073s-84.9-40.327-84.9-90.073,38.012-90.073,84.9-90.073,84.9,40.327,84.9,90.073" fill="#29bcb0"/>
        <g id="Group_2885" data-name="Group 2885" opacity="0.1">
          <g id="Group_2884" data-name="Group 2884">
            <g id="Group_2883" data-name="Group 2883" clip-path="url(#clip-path-7)">
              <path id="Path_496" data-name="Path 496" d="M267.573,109.956c0,49.748-38.006,90.068-84.9,90.068-37.737,0-69.706-26.115-80.757-62.228,17.706,15.646,52.243,39.236,91.647,29.852,43.531-10.369,63.7-41.761,72.287-75.848a95.9,95.9,0,0,1,1.721,18.156"/>
            </g>
          </g>
        </g>
        <g id="Group_2888" data-name="Group 2888" opacity="0.1">
          <g id="Group_2887" data-name="Group 2887">
            <g id="Group_2886" data-name="Group 2886" clip-path="url(#clip-path-8)">
              <path id="Path_497" data-name="Path 497" d="M229.238,45.843a26.192,26.192,0,0,0-4.219-3.453c1.28-.165,2.56-.324,3.842-.512.3-.044.2-.476-.067-.5a27.1,27.1,0,0,0-5.286.1,29.309,29.309,0,0,0-7.862-3.083,66.337,66.337,0,0,1,7.775-1.96.248.248,0,0,0-.065-.484,31.687,31.687,0,0,0-9.189,2.1,32.839,32.839,0,0,0-5.8-.548c-.155,0-.15.224,0,.238a35.692,35.692,0,0,1,4.689.755,40.779,40.779,0,0,0-5.024,2.54,22.218,22.218,0,0,0-3.964.082c-.137.016-.145.228,0,.221a21.655,21.655,0,0,1,3.266.107,46.348,46.348,0,0,0-5.053,3.623c-.11.091.046.241.156.156a39.334,39.334,0,0,1,5.7-3.689,32.446,32.446,0,0,1,6.934,1.805c-1.888.6-3.754,1.28-5.585,1.984-.121.047-.07.242.054.2a43.586,43.586,0,0,1,6.566-1.791c2.013.784,4.011,1.665,6.044,2.519.3.128.5-.371.222-.527a49.1,49.1,0,0,0-4.68-2.287c1.893-.329,3.8-.588,5.711-.835a48.142,48.142,0,0,1,5.418,3.658c.293.227.7-.139.42-.42M216.4,42.927a29.073,29.073,0,0,0-7.41-1.832,44.947,44.947,0,0,1,5.444-2.264,36.063,36.063,0,0,1,7.359,2.871,43.328,43.328,0,0,0-5.393,1.225"/>
            </g>
          </g>
        </g>
        <g id="Group_2891" data-name="Group 2891" opacity="0.1">
          <g id="Group_2890" data-name="Group 2890">
            <g id="Group_2889" data-name="Group 2889" clip-path="url(#clip-path-9)">
              <path id="Path_498" data-name="Path 498" d="M117.251,105.555c.282-.129.066-.508-.2-.465a13.146,13.146,0,0,0-3.446,1.128,39.266,39.266,0,0,1,1.4-3.819.305.305,0,0,0-.527-.308,18.053,18.053,0,0,0-2.049,4.741,18.83,18.83,0,0,0-4.406,3.584,34.108,34.108,0,0,1,1.042-7.253.28.28,0,0,0-.54-.149,19.449,19.449,0,0,0-1.305,8.365,21.813,21.813,0,0,0-2.861,4.519c-.058.126.12.237.191.111a20.4,20.4,0,0,1,2.746-3.8,24.126,24.126,0,0,0,.653,3.7c-.544.5-1.068,1-1.551,1.5a.153.153,0,0,0,.216.216c.468-.433.972-.819,1.464-1.221a25.125,25.125,0,0,0,1.273,3.562c.058.131.284.037.233-.1a24.468,24.468,0,0,1-1.091-3.811,26.083,26.083,0,0,1,3.117-2.144c.064-.037.134-.063.2-.1a26.452,26.452,0,0,0,.489,3.638c.032.153.249.084.229-.063a22.366,22.366,0,0,1-.175-3.841c1.425-.73,2.915-1.318,4.309-2.1.264-.147.076-.517-.2-.465a13.251,13.251,0,0,0-4.089,1.6,27.428,27.428,0,0,1,.833-4.971c1.27-.725,2.613-1.394,4.033-2.043m-8.861,9.95a24.465,24.465,0,0,1-.384-4.022,23.288,23.288,0,0,1,4.093-3.21,21.015,21.015,0,0,0-.344,4.688,25.825,25.825,0,0,0-3.365,2.544"/>
            </g>
          </g>
        </g>
        <path id="Path_499" data-name="Path 499" d="M178.708,61.328c-10.438,7.113-15.613,16.378-14.992,26.7s-7.105,18.559-7.988,29.819,5.74,19.24,5.74,24.38-5.078,14.215-5.078,14.215,11.074,14.472,41.562,13.992,44.837-10.813,44.837-10.813-4.415-9.61-4.857-12.494,6.236-13.419,6.43-22.447-7.921-21.209-7.948-25.691S237.358,69.045,218,59.673a40.89,40.89,0,0,0-39.288,1.655" fill="#263238"/>
        <path id="Path_500" data-name="Path 500" d="M167,93.091c.209-.449-.328-.975-.672-.564a68.285,68.285,0,0,0-12.142,23.345c-2.351,8.092-.17,15.827,3.679,22.9.109.2.389.022.286-.182-4.161-8.278-4.983-16.356-1.495-25.1,2.865-7.178,7.122-13.461,10.344-20.4" fill="#263238"/>
        <path id="Path_501" data-name="Path 501" d="M245.815,124.525c-1.374-8.429-6.579-16.771-10.408-24.106a.377.377,0,0,0-.681.312c2.374,7.063,6.379,13.435,8.557,20.547a32.29,32.29,0,0,1-1.955,23.453.191.191,0,1,0,.322.205,29.963,29.963,0,0,0,4.165-20.411" fill="#263238"/>
        <path id="Path_502" data-name="Path 502" d="M244.3,114.949c-3.926-6.8-7.852-14.152-9.346-22.094-.033-.181-.283-.1-.25.082a62.485,62.485,0,0,0,6.224,18.477c3.454,6.586,8.63,12.707,9.205,20.575a.138.138,0,1,0,.276-.007c.418-6.648-3.005-11.657-6.109-17.033" fill="#263238"/>
        <path id="Path_503" data-name="Path 503" d="M164.492,165.286c-33.58,39.078-73.7,119.178-64.156,134.2,10.626,16.732,59.088-38.927,57.348-41.382-1.478-2.085,13.78-49.854,24.854-84.783,11.064-34.9-9.742-17.7-18.046-8.035" fill="#d3766a"/>
        <path id="Path_504" data-name="Path 504" d="M164.492,165.286c-33.58,39.078-73.7,119.178-64.156,134.2,10.626,16.732,59.088-38.927,57.348-41.382-1.478-2.085,13.78-49.854,24.854-84.783,11.064-34.9-9.742-17.7-18.046-8.035" fill="#455a64"/>
        <path id="Path_505" data-name="Path 505" d="M132.41,295.267l5.843-37.379s-13.78-24.059-5.786-41.325c4.037-8.746,31.707-51.486,46.614-62.305,13.984-10.149,35.323-.162,41.837,8.666C239.65,188.309,249.346,212.4,259.8,295.267Z" fill="#455a64"/>
        <path id="Path_506" data-name="Path 506" d="M210.358,154.541a23.255,23.255,0,0,0-1.65,3.02,19,19,0,0,0-1.53,5.09,18.837,18.837,0,0,0,2.79-4.52,25.235,25.235,0,0,0,1.15-3.19c-.25-.14-.5-.27-.76-.4m-19.35,68.92a18.486,18.486,0,0,0-1.54,5.08,18.526,18.526,0,0,0,2.79-4.52,18.888,18.888,0,0,0,1.53-5.09,18.662,18.662,0,0,0-2.78,4.53m-16.81,69.89c-.27.63-.53,1.27-.76,1.92h1.35c.24-.45.46-.9.67-1.36a18.781,18.781,0,0,0,1.53-5.09,19.091,19.091,0,0,0-2.79,4.53m70.67-81.09c-.01.05-.01.09-.02.14.01-.02.03-.03.04-.05a.292.292,0,0,0-.02-.09m-34,71.84a18.887,18.887,0,0,0-1.53,5.09,20.415,20.415,0,0,0,4.32-9.61,18.837,18.837,0,0,0-2.79,4.52m-71.67-33.29a18.819,18.819,0,0,0-1.53,5.08,20.415,20.415,0,0,0,4.32-9.61,19.092,19.092,0,0,0-2.79,4.53m23.52-51.8a18.45,18.45,0,0,0-1.54,5.09,18.281,18.281,0,0,0,2.79-4.53,18.47,18.47,0,0,0,1.53-5.08,18.8,18.8,0,0,0-2.78,4.52m63.49-19.33a18.819,18.819,0,0,0-5.08-1.53,18.526,18.526,0,0,0,4.52,2.79,18.888,18.888,0,0,0,5.09,1.53,19.092,19.092,0,0,0-4.53-2.79m14.89,58.04a18.134,18.134,0,0,0-5.08-1.53,18.485,18.485,0,0,0,4.52,2.78,18.9,18.9,0,0,0,5.09,1.54,18.773,18.773,0,0,0-4.53-2.79m-82.19-61.38-.45.6a13.935,13.935,0,0,0,1.59.3q-.555-.48-1.14-.9m15.15,71.96a18.435,18.435,0,0,0-5.09-1.53,18.731,18.731,0,0,0,4.53,2.78,18.449,18.449,0,0,0,5.09,1.54,19.092,19.092,0,0,0-4.53-2.79m17.28-59.74a18.633,18.633,0,0,0-2.52-4.68,20.592,20.592,0,0,0,3.74,9.85,18.507,18.507,0,0,0-1.22-5.17m23.64,59.91a18.282,18.282,0,0,0-2.51-4.68,20.591,20.591,0,0,0,3.74,9.85,18.257,18.257,0,0,0-1.23-5.17m-78.53-39.09c-.23.4-.47.8-.7,1.18a13.364,13.364,0,0,0,1.27,1.96,14.754,14.754,0,0,0-.57-3.14m15.76,64.08a18.633,18.633,0,0,0-2.52-4.68,18.961,18.961,0,0,0,1.23,5.17,18.633,18.633,0,0,0,2.52,4.68,18.6,18.6,0,0,0-1.23-5.17M178,163.881a18.922,18.922,0,0,0-4.68,2.51,18.687,18.687,0,0,0,5.17-1.23,18.282,18.282,0,0,0,4.68-2.51,18.519,18.519,0,0,0-5.17,1.23m59.21,104.26a18.922,18.922,0,0,0-4.68,2.51,18.6,18.6,0,0,0,5.17-1.23,18.283,18.283,0,0,0,4.68-2.51,18.6,18.6,0,0,0-5.17,1.23m-81.67-41.25a18.921,18.921,0,0,0-4.68,2.51,18.949,18.949,0,0,0,5.17-1.22,18.633,18.633,0,0,0,4.68-2.52,18.6,18.6,0,0,0-5.17,1.23m33.04,42.38a18.922,18.922,0,0,0-4.68,2.51,20.592,20.592,0,0,0,9.85-3.74,18.6,18.6,0,0,0-5.17,1.23m-55.43,21.29-.25,1.55.09-.03a18.921,18.921,0,0,0,4.68-2.51,17.443,17.443,0,0,0-4.52.99m85.25-82.32a18.634,18.634,0,0,0-4.68,2.52,20.591,20.591,0,0,0,9.85-3.74,18.591,18.591,0,0,0-5.17,1.22" fill="#37474f"/>
        <path id="Path_507" data-name="Path 507" d="M154.732,181.118c-2.828,3.88-5.574,7.82-8.274,11.792.737-1.546,1.478-3.089,2.2-4.638.052-.112-.112-.2-.17-.093-1,1.942-1.928,3.911-2.829,5.893q-5.409,8.014-10.49,16.244a42.591,42.591,0,0,0-3.716,7.265,32.6,32.6,0,0,0-1.825,7.727,41.061,41.061,0,0,0-.127,7.932,54.856,54.856,0,0,0,1.15,8.09,51.794,51.794,0,0,0,2.849,8.837c.6,1.394,1.237,2.778,1.926,4.13.629,1.234,1.909,3.755,1.891,3.852-.258,1.4-.52,2.374-.7,3.547l-.54,3.586q-.54,3.586-1.06,7.176c-.7,4.75-1.292,9.505-1.885,14.268-.34,2.733-.519,5.491-.9,8.217-.015.11.152.155.171.043.393-2.376.982-4.719,1.414-7.088s.871-4.743,1.315-7.113c.9-4.789,1.6-9.623,2.354-14.438q.311-2,.622-3.994a25.825,25.825,0,0,0,.508-4.443s-4.265-8.765-5.922-14.91a52.839,52.839,0,0,1-1.7-7.923,41.647,41.647,0,0,1-.1-7.871,34.544,34.544,0,0,1,1.511-7.727,39.817,39.817,0,0,1,3.348-7.353c2.785-4.949,5.744-9.807,8.746-14.627q5.106-8.2,10.367-16.3c.06-.091-.084-.164-.146-.08" fill="#263238"/>
        <path id="Path_508" data-name="Path 508" d="M181.12,253.219a120.814,120.814,0,0,0-17.744,2.177c-2.9.618-5.752,1.367-8.6,2.178-1.422.4-2.848.761-4.283,1.11a19.059,19.059,0,0,1-4.576.67.107.107,0,0,0,0,.213,32.464,32.464,0,0,0,4.377.1,31.363,31.363,0,0,0,4.2-.616c2.948-.6,5.867-1.334,8.809-1.963,5.935-1.269,11.867-2.536,17.88-3.375.277-.038.227-.51-.054-.492" fill="#263238"/>
        <path id="Path_509" data-name="Path 509" d="M195.577,259.078a130.532,130.532,0,0,0-14.695-1.31c-2.463-.072-4.91,0-7.369.137q-1.761.1-3.519.253c-1.289.111-2.565.4-3.854.487-.134.01-.143.218-.005.212,1.219-.05,2.452.1,3.672.123s2.452.032,3.678.052c2.454.041,4.907.109,7.362.126,4.916.035,9.809.119,14.72.324.266.011.261-.368.01-.4" fill="#263238"/>
        <path id="Path_510" data-name="Path 510" d="M101.128,301.156c10.173,9.927,32.37,7.978,88.72,8.317,7.8.047,22.933-54.893,14.608-55.371-10.485-.6-51.3-.667-54.291-.295-25.182,3.139-55.937,40.615-49.037,47.349" fill="#d3766a"/>
        <path id="Path_511" data-name="Path 511" d="M185.556,255.216s21.8-6.442,34.3-6.281c16.738.215,31.1,7.291,36.939,10.62,12.19,6.949,36.858,32.178,30.832,40.551-5.456,7.579-29.369-19.483-29.369-19.483s28.934,23.568,20.687,31.487-34.218-25.076-34.218-25.076,29.186,24.882,19.39,31.7c-7.4,5.154-32.609-23.4-32.609-23.4s24.937,21.561,17.552,27.19c-8.16,6.219-33.081-18.682-33.081-18.682-21.18,11.147-36.074,6.89-46.208,3.262-2.453-.878,15.788-51.886,15.788-51.886" fill="#efbb86"/>
        <path id="Path_512" data-name="Path 512" d="M248.77,271.83c3.5,2.645,7.059,5.3,10.31,8.247s6.4,6.011,9.367,9.248c7.266,7.939,10.575,14.047,10.329,13.692-5.8-8.4-17.282-19.128-20.536-22.076s-6.342-6.047-9.587-8.991c-.081-.074.034-.183.117-.12" fill="#263238"/>
        <path id="Path_513" data-name="Path 513" d="M237.914,283.378c4.322,3.571,8.743,6.958,12.908,10.722,4.145,3.745,7.75,7.661,11.626,11.682.3.309.034.368-.279.069-4.033-3.862-8.06-7.122-12.138-10.937s-8.011-7.79-12.21-11.44c-.066-.057.027-.15.093-.1" fill="#263238"/>
        <path id="Path_514" data-name="Path 514" d="M226.814,291.614c6.884,5.12,12.815,11.5,18.483,17.9.282.319-.067.357-.375.048C238.89,303.5,234.2,298.7,226.635,291.853c-.118-.106.034-.347.179-.239" fill="#263238"/>
        <path id="Path_515" data-name="Path 515" d="M211.5,248.716l-38.883,62.718s-62.753,4.146-72.141-11.255,34.687-45.72,49.6-46.445,61.421-5.018,61.421-5.018" fill="#455a64"/>
        <path id="Path_516" data-name="Path 516" d="M132.5,290.791a18.634,18.634,0,0,0-4.68,2.52,20.592,20.592,0,0,0,9.85-3.74,18.591,18.591,0,0,0-5.17,1.22m56.08-21.52a18.922,18.922,0,0,0-4.68,2.51,20.592,20.592,0,0,0,9.85-3.74,18.6,18.6,0,0,0-5.17,1.23m-36.37,4.19a18.633,18.633,0,0,0-2.52-4.68,18.961,18.961,0,0,0,1.23,5.17,18.633,18.633,0,0,0,2.52,4.68,18.6,18.6,0,0,0-1.23-5.17m-34.89-1.92c-.1-.26-.21-.51-.32-.76-.37.29-.73.59-1.09.89.04.12.08.23.12.35a18.692,18.692,0,0,0,2.52,4.69,18.519,18.519,0,0,0-1.23-5.17m34.49,37.31a18.657,18.657,0,0,0-5.09-1.54,18.527,18.527,0,0,0,4.52,2.79,19,19,0,0,0,5.09,1.53,18.485,18.485,0,0,0-4.52-2.78m-43.95-9.68a18.449,18.449,0,0,0-5.09-1.54,18.28,18.28,0,0,0,4.53,2.79,18.469,18.469,0,0,0,5.08,1.53,18.8,18.8,0,0,0-4.52-2.78m66.34-5.82a18.78,18.78,0,0,0-1.53,5.09,20.508,20.508,0,0,0,4.32-9.62,19.091,19.091,0,0,0-2.79,4.53" fill="#37474f"/>
        <path id="Path_517" data-name="Path 517" d="M127.1,264.09c3.24-2.928,12.6-10.107,22.979-10.355a.09.09,0,0,1,.026.178c-8.348,1.4-19.525,7.73-22.9,10.311a.086.086,0,0,1-.107-.134" fill="#263238"/>
        <path id="Path_518" data-name="Path 518" d="M161.73,303.491c15.3-21.382,28.146-46.175,30.691-50.338.121-.2-.21-.368-.322-.163-2.283,4.213-20.032,30.956-30.723,50.322-.124.223.206.385.354.179" fill="#263238"/>
        <path id="Path_519" data-name="Path 519" d="M207.412,154.686c-.8,2.323-16.636,19.415-27.132,16.052-7.379-2.364.994-18.609.994-18.609L178.7,130.15l28.727-14.317s.316,37.865-.01,38.853" fill="#ffce9c"/>
        <path id="Path_520" data-name="Path 520" d="M207.48,129.974a42.2,42.2,0,0,1-26.35,20.932l-2.442-20.751,28.73-14.322s.029,6.388.062,14.141" fill="#263238"/>
        <path id="Path_521" data-name="Path 521" d="M158.164,90.481c-12.481,34.031,6.493,45.35,13.834,48.034,6.665,2.435,29.667,9.882,45.6-22.678s4.053-49.121-10.894-55.5-36.056-3.891-48.537,30.142" fill="#ffd6ac"/>
        <path id="Path_522" data-name="Path 522" d="M168.919,85.752a23.585,23.585,0,0,1,2.475-.378,4.046,4.046,0,0,1,2.6.1,1.29,1.29,0,0,1,.552,1.474,3.2,3.2,0,0,1-2.688,1.809,4.7,4.7,0,0,1-3.346-.518,1.376,1.376,0,0,1,.408-2.483" fill="#263238"/>
        <path id="Path_523" data-name="Path 523" d="M195,89.334a24.1,24.1,0,0,1-2.206-1.186,4.058,4.058,0,0,1-2.019-1.638,1.289,1.289,0,0,1,.446-1.51,3.194,3.194,0,0,1,3.235.17,4.7,4.7,0,0,1,2.363,2.424A1.377,1.377,0,0,1,195,89.334" fill="#263238"/>
        <path id="Path_524" data-name="Path 524" d="M187.446,96.665c.047-.084.148.17.115.266-.825,2.327-1.377,5.133.5,6.592.058.045.014.161-.061.125-2.48-1.193-1.709-4.91-.555-6.983" fill="#263238"/>
        <path id="Path_525" data-name="Path 525" d="M190.329,94.878c3.875.919,1.751,8.6-1.838,7.749-3.533-.838-1.409-8.519,1.838-7.749" fill="#263238"/>
        <path id="Path_526" data-name="Path 526" d="M191.725,95.7c.551.62,1,1.569,1.783,1.872.91.352,1.839-.257,2.665-.862.085-.063.133.023.106.125-.384,1.478-1.368,2.831-3.007,2.614-1.494-.2-2.168-1.786-2.126-3.367.007-.293.358-.632.579-.382" fill="#263238"/>
        <path id="Path_527" data-name="Path 527" d="M173.045,92.667c.006-.1-.217.062-.24.162-.563,2.4-1.614,5.063-3.983,5.277-.074.006-.1.128-.016.138,2.732.336,4.091-3.209,4.239-5.577" fill="#263238"/>
        <path id="Path_528" data-name="Path 528" d="M171.584,89.606c-3.758-1.32-6.12,6.292-2.639,7.514,3.425,1.2,5.788-6.408,2.639-7.514" fill="#263238"/>
        <path id="Path_529" data-name="Path 529" d="M169.841,89.613c-.727.218-1.549.766-2.282.589-.85-.2-1.21-1.218-1.5-2.171-.03-.1-.11-.054-.144.045-.491,1.443-.48,3.108.831,3.82,1.2.652,2.519-.306,3.315-1.649.148-.248.07-.72-.223-.634" fill="#263238"/>
        <path id="Path_530" data-name="Path 530" d="M180.085,115.479c-.705.432-1.457,1.077-2.348.951a6.529,6.529,0,0,1-2.449-1.2.086.086,0,0,0-.132.1,3.327,3.327,0,0,0,2.757,2,2.628,2.628,0,0,0,2.378-1.7c.07-.131-.1-.225-.206-.162" fill="#263238"/>
        <path id="Path_531" data-name="Path 531" d="M172.649,104.04s-1.7,3.746-2.184,5.417a63.08,63.08,0,0,0,9.69,2.412c.206.032.378-.734.2-.791-4.676-1.451-5.572-1.746-8.2-2.459.017-.5,2.787-5.737,2.528-5.834a15.174,15.174,0,0,0-4.042-.238c2.947-7.175,7.021-13.818,9.849-21.007a.237.237,0,0,0-.406-.234c-4.762,6.661-8.335,14.843-11.57,22.175-.411.91,3.391.65,4.142.559" fill="#263238"/>
        <path id="Path_532" data-name="Path 532" d="M217.376,112.146c-8.537-2.36-4.719-29.417-4.213-32.734-.427,2.071-2.728,13.039-3.663,13.274a8.548,8.548,0,0,1-2.581-1.156l-.02-.008a26.575,26.575,0,0,0,.617-3.971c.075-.621-.54,1.256-1.432,3.531-.456-.251-.945-.539-1.484-.822a32.283,32.283,0,0,0,1.157-8.479c-.007-1.086-1.387,3.477-3.338,7.287-5.557-3.022-13.632-7.174-21.589-9.355-2.126-.593-3.986-1.009-5.645-1.322.756-3.219,1.945-6.557,1.533-5.876a32.017,32.017,0,0,0-2.771,5.655c-.9-.16-1.737-.3-2.492-.4.864-4.6,4.755-11.33,3.763-10.394a32.882,32.882,0,0,0-7.057,10.138,13.012,13.012,0,0,1-4.137-.563c.2-1.487,2.933-10.352,14.091-18.773,13.692-10.332,38.293-6.941,46.666,11.558,0,0,8.411,8.883,7.478,19.737-.924,10.833-9.95,24.028-14.883,22.672" fill="#263238"/>
        <path id="Path_533" data-name="Path 533" d="M211.719,114.021s10.6-8.848,14.814-4.78-5.82,18.337-12.225,18.924a6.129,6.129,0,0,1-7.064-5.33Z" fill="#ffd6ac"/>
        <path id="Path_534" data-name="Path 534" d="M223.554,113.26a.083.083,0,0,1-.011.164c-4.527.546-7.7,3.745-10.269,7.258,1.623-1.18,3.5-1.558,5.129.433.086.105-.061.244-.169.189a3.771,3.771,0,0,0-4.35.182,18.252,18.252,0,0,0-2.8,2.72c-.289.313-.9-.061-.642-.443.018-.029.04-.057.059-.086,1.308-5.228,7.324-11.409,13.05-10.417" fill="#263238"/>
        <path id="Path_535" data-name="Path 535" d="M178.689,57.793a38.641,38.641,0,0,1,29.383,1.23c11.781,5.391,24.473,14.491,28.649,36.822,0,0,5.293-24.882-12.559-37.4-22.422-15.725-40.681-5.71-45.473-.649" fill="#5c6be8"/>
        <path id="Path_536" data-name="Path 536" d="M151.522,135.371s4.8-8.985,11.374-4.658.225,12.289.225,12.289Z" fill="#ff9cbd"/>
        <rect id="Rectangle_3084" data-name="Rectangle 3084" width="71.557" height="13.884" transform="translate(112.415 194.816) rotate(-56.659)" fill="#ffc727"/>
        <rect id="Rectangle_3085" data-name="Rectangle 3085" width="2.844" height="16.212" transform="matrix(0.55, -0.835, 0.835, 0.55, 149.418, 136.451)" fill="#37474f"/>
        <rect id="Rectangle_3086" data-name="Rectangle 3086" width="2.844" height="16.213" transform="translate(147.69 139.077) rotate(-56.658)" fill="#37474f"/>
        <path id="Path_537" data-name="Path 537" d="M124.021,202.449l-9.219,4.508-3.032,1.5.148-3.395.49-10.25,2.155-.717s.157,2.206.168,2.245l2.154-.717s.158,2.206.168,2.245l2.129-.734s.183,2.223.194,2.262l2.128-.734s.184,2.223.195,2.262l2.128-.734s.183,2.223.194,2.262" fill="#ebebeb"/>
        <path id="Path_538" data-name="Path 538" d="M114.8,206.957l-3.033,1.5.149-3.394Z" fill="#37474f"/>
        <g id="Group_2894" data-name="Group 2894" opacity="0.1">
          <g id="Group_2893" data-name="Group 2893">
            <g id="Group_2892" data-name="Group 2892" clip-path="url(#clip-path-10)">
              <path id="Path_539" data-name="Path 539" d="M117.46,192.17c9.791-15.778,21.014-32.844,31.63-48.079-9.787,15.78-21.017,32.842-31.63,48.079"/>
              <path id="Path_540" data-name="Path 540" d="M120.941,194.487c9.791-15.778,21.014-32.844,31.63-48.079-9.787,15.78-21.017,32.842-31.63,48.079"/>
              <path id="Path_541" data-name="Path 541" d="M124.422,196.8c9.791-15.778,21.014-32.844,31.63-48.079-9.787,15.78-21.017,32.842-31.63,48.079"/>
            </g>
          </g>
        </g>
        <path id="Path_542" data-name="Path 542" d="M229.973,180.782c11.817,28.528,29.768,88.265,16.325,107.083-12.946,18.125-86.84-22.627-101.827-30.971-6.151-3.424,10.234-56.155,17.21-53.329,15.319,6.206,46.55,27.6,47.377,27.207.734-.345-.3-24.522-.478-48.316-.263-34.624,12.9-22.181,21.393-1.674" fill="#ffd6ac"/>
        <path id="Path_543" data-name="Path 543" d="M117.973,170.371c-5.1,4.283-.6,9.481-.6,9.481a12.441,12.441,0,0,0-8.037,2.641c-3.88,3.347-.334,10.9-.334,10.9a15.34,15.34,0,0,0-8.033,4.137c-3.392,3.576-.9,11.707-.9,11.707a13.457,13.457,0,0,0-4.773,8.086c-1.175,8.557,8.9,17.076,15.341,22.445,9.571,7.977,29.589,14.88,33.829,17.127l35.251-40.683s-22.035-32.03-30.114-37.856c-8.252-5.95-26.622-12.195-31.634-7.984" fill="#ffd6ac"/>
        <path id="Path_544" data-name="Path 544" d="M118.223,179.442c8.683,2.963,16.016,8.331,23.641,13.274a.158.158,0,0,1-.175.262c-7.525-5-15.947-8.449-23.656-13.143a.221.221,0,0,1,.19-.393" fill="#263238"/>
        <path id="Path_545" data-name="Path 545" d="M109.6,192.972a23.89,23.89,0,0,1,5.311,3.3q2.7,1.947,5.325,3.981,5.267,4.071,10.325,8.4c.149.128-.01.388-.174.262-3.5-2.7-7.048-5.344-10.662-7.893q-2.713-1.912-5.456-3.782a28.415,28.415,0,0,1-5-3.763.317.317,0,0,1,.333-.508" fill="#263238"/>
        <path id="Path_546" data-name="Path 546" d="M100.224,209.346c1.715.566,3.236,2.109,4.622,3.228q2.361,1.9,4.743,3.783c3.175,2.5,6.351,5.006,9.612,7.4.163.119-.009.382-.174.262-3.325-2.413-6.683-4.78-9.987-7.223q-2.433-1.8-4.847-3.624c-1.368-1.035-3.2-2.173-4.1-3.669-.05-.083.047-.182.133-.154" fill="#263238"/>
        <path id="Path_547" data-name="Path 547" d="M180.061,210.966l-28.326,54.507s63.582,30.286,85.968,27.293,12-45.775,10.635-55.416c-.979-6.891-12.717-48.549-21.879-65.489S209.2,154.634,207.946,177.7s.62,51.1-.307,50.686-27.578-17.419-27.578-17.419" fill="#455a64"/>
        <path id="Path_548" data-name="Path 548" d="M218.4,208.241a18.634,18.634,0,0,0-4.68,2.52,20.591,20.591,0,0,0,9.85-3.74,18.591,18.591,0,0,0-5.17,1.22m-29.82,61.03a18.922,18.922,0,0,0-4.68,2.51,20.592,20.592,0,0,0,9.85-3.74,18.6,18.6,0,0,0-5.17,1.23m48.63-1.13a18.922,18.922,0,0,0-4.68,2.51,18.6,18.6,0,0,0,5.17-1.23,18.283,18.283,0,0,0,4.68-2.51,18.6,18.6,0,0,0-5.17,1.23m-22.23-19.67a18.282,18.282,0,0,0-2.51-4.68,20.591,20.591,0,0,0,3.74,9.85,18.257,18.257,0,0,0-1.23-5.17m-40.92-.17a18.435,18.435,0,0,0-5.09-1.53,18.731,18.731,0,0,0,4.53,2.78,18.449,18.449,0,0,0,5.09,1.54,19.092,19.092,0,0,0-4.53-2.79m67.04-10.58a18.134,18.134,0,0,0-5.08-1.53,18.485,18.485,0,0,0,4.52,2.78,18.9,18.9,0,0,0,5.09,1.54,18.773,18.773,0,0,0-4.53-2.79m-14.89-58.04a18.819,18.819,0,0,0-5.08-1.53,18.526,18.526,0,0,0,4.52,2.79,18.888,18.888,0,0,0,5.09,1.53,19.092,19.092,0,0,0-4.53-2.79M210.868,284.1a20.935,20.935,0,0,0-1.38,4.16c.16.05.32.09.48.14a20.532,20.532,0,0,0,2.16-3.73,19,19,0,0,0,1.53-5.09,18.837,18.837,0,0,0-2.79,4.52m-17.5-64.66a19.612,19.612,0,0,0-2.36,4.02,18.486,18.486,0,0,0-1.54,5.08,18.526,18.526,0,0,0,2.79-4.52,20.4,20.4,0,0,0,1.42-4.38v-.01c-.1-.07-.21-.13-.31-.19" fill="#37474f"/>
        <path id="Path_549" data-name="Path 549" d="M207.75,227.622a63.01,63.01,0,0,1,7.294,9.658,110.55,110.55,0,0,1,5.683,10.185c.04.078-.162.117-.207.041-2-3.348-4.41-6.6-6.622-9.9s-4.777-6.472-6.773-9.808c-.129-.215.436-.372.625-.179" fill="#263238"/>
        <path id="Path_550" data-name="Path 550" d="M239.216,204.445c1.676,6.868,8.28,30.609,9.455,37.565a156.094,156.094,0,0,1,2.431,20.947,71.17,71.17,0,0,1-.426,10.441,34.97,34.97,0,0,1-2.457,9.979,13.489,13.489,0,0,1-6.61,7.056,21.085,21.085,0,0,1-9.883,1.486c-6.883-.384-13.689-2.376-20.406-4.42-6.725-2.083-13.364-4.475-20-6.874s-13.244-4.9-19.821-7.472-13.167-5.131-19.715-7.79l.059.166,1.754-3.638-1.969,3.527-.062.111.121.055q9.624,4.458,19.375,8.641,9.77,4.134,19.648,8.024,9.9,3.845,20.016,7.137c6.756,2.1,13.618,4.261,20.9,4.658a23.077,23.077,0,0,0,10.853-1.773,14.086,14.086,0,0,0,4.532-3.384,17.583,17.583,0,0,0,2.984-4.727,36.792,36.792,0,0,0,2.515-10.551,63.02,63.02,0,0,0,.211-10.726c-1.638-23.574-9.4-44.916-13.5-58.438" fill="#263238"/>
        <path id="Path_551" data-name="Path 551" d="M207.526,191.251c-.116,2.908-.138,5.813-.215,8.719l-.083,8.715c-.082,5.8,0,11.627-.135,17.4l-.042,1.068-.032.515L207,227.9l-.013.083c0,.019,0,.024,0,0l.009-.023.065-.122a.715.715,0,0,1,.4-.3l.111-.038a.461.461,0,0,1,.2-.007.4.4,0,0,1,.089.027l-.01,0-.047-.022c-.066-.034-.118-.052-.2-.1l-.456-.245-.929-.532c-1.242-.727-2.48-1.485-3.715-2.243l-7.433-4.535-7.456-4.511-7.515-4.424-.072-.043-.031.07-.542,1.2.67-1.132-.1.027q3.543,2.544,7.132,5.022l7.225,4.88c2.414,1.62,4.862,3.186,7.311,4.759,1.234.772,2.467,1.542,3.726,2.293l.956.559.5.275c.079.044.2.1.292.142l.076.035.053.022a1.069,1.069,0,0,0,.155.044,1.236,1.236,0,0,0,.331.027.667.667,0,0,0,.176-.027.908.908,0,0,0,.443-.349.629.629,0,0,0,.074-.14l.016-.044.029-.088a.861.861,0,0,0,.033-.136l.031-.185.034-.308.041-.572.04-1.109c.09-5.847-.035-11.644-.252-17.458l-.362-8.711c-.183-2.9-.317-5.806-.557-8.706" fill="#263238"/>
        <path id="Path_552" data-name="Path 552" d="M176.1,249.743c3.219-6.271,6.388-12.572,9.842-18.727,1.963-3.5,3.907-7.008,5.9-10.485.076-.132.313-.023.248.116-2.978,6.424-5.981,12.859-9.257,19.146-3.258,6.255-6.465,12.537-9.806,18.751q-2.85,5.3-6.015,10.414c-.042.067-.162.012-.131-.062,2.765-6.528,5.975-12.836,9.216-19.153" fill="#263238"/>
        <path id="Path_553" data-name="Path 553" d="M205.249,198.1a44.622,44.622,0,0,0,.936,5.062,44.112,44.112,0,0,0,1.457,4.936,44.121,44.121,0,0,0-.935-5.061,44.837,44.837,0,0,0-1.458-4.937" fill="#263238"/>
        <path id="Path_554" data-name="Path 554" d="M174.487,155.912s-1.537,16.561,8.051,17.409,24.306-12.5,30.249-17.409a30.468,30.468,0,0,0-21.159-6.573c-11.321.646-17.141,6.573-17.141,6.573" fill="#ffd6ac"/>
      </g>
    </g>
    <rect id="Rectangle_3089" data-name="Rectangle 3089" width="112.381" height="5.041" transform="translate(110.015 321.889)" fill="#a6a6a6"/>
    <rect id="Rectangle_3090" data-name="Rectangle 3090" width="56.563" height="5.041" transform="translate(165.833 321.889)" fill="#c7c7c7"/>
    <path id="Path_555" data-name="Path 555" d="M156.74,326.926H47.217L31.742,252.541H141.265Z" fill="#c7c7c7"/>
    <g id="Group_2898" data-name="Group 2898">
      <g id="Group_2897" data-name="Group 2897" clip-path="url(#clip-path)">
        <path id="Path_556" data-name="Path 556" d="M102.731,291.395a6.45,6.45,0,0,1-6.533,7.3,8.308,8.308,0,0,1-8.067-7.3,6.451,6.451,0,0,1,6.533-7.3,8.308,8.308,0,0,1,8.067,7.3" fill="#fff"/>
      </g>
    </g>
    <g id="Group_2900" data-name="Group 2900">
      <g id="Group_2899" data-name="Group 2899" clip-path="url(#clip-path)">
        <path id="Path_557" data-name="Path 557" d="M6.665,213.876a21.942,21.942,0,0,0,27.5,27.951l9.3,6.058-1.019-10.921A21.95,21.95,0,1,0,6.665,213.876" fill="#29bcb0"/>
        <rect id="Rectangle_3092" data-name="Rectangle 3092" width="2.98" height="20.052" transform="translate(19.286 215.279) rotate(-45)" fill="#fff"/>
        <rect id="Rectangle_3093" data-name="Rectangle 3093" width="20.052" height="2.98" transform="translate(19.286 227.351) rotate(-45)" fill="#fff"/>
        <path id="Path_558" data-name="Path 558" d="M98.983,29.55a28.777,28.777,0,0,0,46.4,22.164l14.173,3.31L153.42,42.016A28.787,28.787,0,1,0,98.983,29.55" fill="#fff"/>
        <path id="Path_559" data-name="Path 559" d="M98.983,29.55a28.691,28.691,0,0,0,31.824,27.8A28.4,28.4,0,0,0,145.3,51.329l.168.038,14.192,3.23-.5.615-6.177-12.99-.1-.213.108-.213a28.731,28.731,0,0,0,3.075-12.361c.406-13.046-9.171-25.428-21.941-28.241C116.169-3.25,98.55,11.1,98.983,29.55m0,0c.066-31.339,41.21-41.019,55.249-12.963a29.063,29.063,0,0,1-.383,25.648l.007-.424,6.1,13.026.387.827-.884-.212L145.3,52.061l.3-.065a29,29,0,0,1-14.747,5.823C114.285,59.582,99.169,46.236,98.983,29.55" fill="#263238"/>
        <path id="Path_560" data-name="Path 560" d="M122.789,34.023a9.207,9.207,0,0,1,.641-3.522,5.838,5.838,0,0,1,2.642-2.722q.6-.36,1.481-.821a11.964,11.964,0,0,0,1.721-1.1,6.3,6.3,0,0,0,1.421-1.5,3.462,3.462,0,0,0,.58-1.982,3.277,3.277,0,0,0-.32-1.481,3.385,3.385,0,0,0-.841-1.081,3.491,3.491,0,0,0-1.22-.66,4.709,4.709,0,0,0-1.421-.221,4.113,4.113,0,0,0-1.6.3,5.451,5.451,0,0,0-1.3.76,6.447,6.447,0,0,0-1.041,1.041,11.506,11.506,0,0,0-.781,1.1l-3.483-2.4a7.75,7.75,0,0,1,1.382-2.2,8.432,8.432,0,0,1,1.961-1.622,9.191,9.191,0,0,1,2.382-1,10.237,10.237,0,0,1,2.642-.341,10.5,10.5,0,0,1,3,.44,7.639,7.639,0,0,1,2.662,1.4,7.26,7.26,0,0,1,1.922,2.462,8.027,8.027,0,0,1,.74,3.582,7.746,7.746,0,0,1-.3,2.262A6.337,6.337,0,0,1,134.8,26.5a7.51,7.51,0,0,1-1.321,1.441,15.056,15.056,0,0,1-1.721,1.241q-.8.48-1.6.92a9.637,9.637,0,0,0-1.46.981,4.78,4.78,0,0,0-1.081,1.241,3.253,3.253,0,0,0-.42,1.7Zm.08,3.8h4.444V43.35h-4.444Z" fill="#3b459c"/>
      </g>
    </g>
  </g>
</svg>
