<svg xmlns="http://www.w3.org/2000/svg" width="15.946" height="15.943" viewBox="0 0 15.946 15.943">
  <path id="Union_1" data-name="Union 1" d="M-12939.434-86.463v-5.156h-5.159a1.408,1.408,0,0,1-1.407-1.41,1.407,1.407,0,0,1,1.407-1.407h5.159v-5.156a1.407,1.407,0,0,1,1.406-1.407,1.407,1.407,0,0,1,1.407,1.407v13.129a1.407,1.407,0,0,1-1.407,1.407A1.407,1.407,0,0,1-12939.434-86.463Zm6.1-5.156a1.409,1.409,0,0,1-1.41-1.41,1.408,1.408,0,0,1,1.41-1.407h1.874a1.408,1.408,0,0,1,1.407,1.407,1.409,1.409,0,0,1-1.407,1.41Z" transform="translate(12946 100.999)" fill="#fff"/>
</svg>
