<svg xmlns="http://www.w3.org/2000/svg" width="14.677" height="14.677" viewBox="0 0 14.677 14.677">
  <g id="vuesax_broken_document" data-name="vuesax/broken/document" transform="translate(-108 -188)">
    <g id="document" transform="translate(108 188)">
      <path id="Vector" d="M-.291,4.448A.459.459,0,0,1-.75,3.99,4.839,4.839,0,0,1,.378.378,4.839,4.839,0,0,1,3.99-.75H7.047a.459.459,0,0,1,.459.459.459.459,0,0,1-.459.459H3.99a4.025,4.025,0,0,0-2.963.859A4.025,4.025,0,0,0,.167,3.99.459.459,0,0,1-.291,4.448Z" transform="translate(1.514 1.514)" fill="#525f77"/>
      <path id="Vector-2" data-name="Vector" d="M7.659,7.506H3.99A4.839,4.839,0,0,1,.378,6.378,4.839,4.839,0,0,1-.75,2.766V1.531a.459.459,0,0,1,.459-.459.459.459,0,0,1,.459.459V2.766a4.025,4.025,0,0,0,.859,2.963,4.025,4.025,0,0,0,2.963.859H7.659a4.025,4.025,0,0,0,2.963-.859,4.025,4.025,0,0,0,.859-2.963V-.291A.459.459,0,0,1,11.94-.75a.459.459,0,0,1,.459.459V2.766A4.839,4.839,0,0,1,11.27,6.378,4.839,4.839,0,0,1,7.659,7.506Z" transform="translate(1.514 6.407)" fill="#525f77"/>
      <path id="Vector-3" data-name="Vector" d="M2.155,5.06c-2.09,0-2.9-.814-2.9-2.9V-.291A.459.459,0,0,1-.467-.715a.459.459,0,0,1,.5.1L4.925,4.277a.459.459,0,0,1-.649.649L.167.816V2.155c0,1.579.409,1.988,1.988,1.988a.459.459,0,0,1,0,.917Z" transform="translate(8.853 1.514)" fill="#525f77"/>
      <path id="Vector-4" data-name="Vector" d="M0,0H14.677V14.677H0Z" fill="none" opacity="0"/>
    </g>
    <text id="pdf" transform="translate(111.339 198.339)" fill="#525f77" font-size="4" font-family="IBMPlexSansArabic-SemiBold, IBM Plex Sans Arabic" font-weight="600"><tspan x="0" y="0">pdf</tspan></text>
  </g>
</svg>
