<svg xmlns="http://www.w3.org/2000/svg" width="13.5" height="13.5" viewBox="0 0 13.5 13.5">
  <g id="vuesax_broken_add" data-name="vuesax/broken/add" transform="translate(-497.25 -257.25)">
    <g id="add">
      <path id="Vector" d="M0,12.75A.75.75,0,0,1-.75,12V0A.75.75,0,0,1,0-.75.75.75,0,0,1,.75,0V12A.75.75,0,0,1,0,12.75Z" transform="translate(504 258)" fill="#fff"/>
      <path id="Vector-2" data-name="Vector" d="M2,.75H0A.75.75,0,0,1-.75,0,.75.75,0,0,1,0-.75H2A.75.75,0,0,1,2.75,0,.75.75,0,0,1,2,.75Z" transform="translate(508 264)" fill="#fff"/>
      <path id="Vector-3" data-name="Vector" d="M5.66.75H0A.75.75,0,0,1-.75,0,.75.75,0,0,1,0-.75H5.66A.75.75,0,0,1,6.41,0,.75.75,0,0,1,5.66.75Z" transform="translate(498 264)" fill="#fff"/>
      <path id="Vector-4" data-name="Vector" d="M0,12.75A.75.75,0,0,1-.75,12V0A.75.75,0,0,1,0-.75.75.75,0,0,1,.75,0V12A.75.75,0,0,1,0,12.75Z" transform="translate(504 258)" fill="#fff"/>
    </g>
  </g>
</svg>
