<svg id="vuesax_broken_clipboard-tick" data-name="vuesax/broken/clipboard-tick" xmlns="http://www.w3.org/2000/svg" width="14.054" height="14.054" viewBox="0 0 14.054 14.054">
  <g id="clipboard-tick">
    <path id="Vector" d="M.568,2.471a.439.439,0,0,1-.311-.129l-.878-.878a.439.439,0,0,1,0-.621A.439.439,0,0,1,0,.843l.568.568L2.6-.621a.439.439,0,0,1,.621,0,.439.439,0,0,1,0,.621L.878,2.342A.439.439,0,0,1,.568,2.471Z" transform="translate(5.763 7.455)" fill="#525f77"/>
    <path id="Vector-2" data-name="Vector" d="M3.2,2.471H.86a1.805,1.805,0,0,1-1.049-.22A1.538,1.538,0,0,1-.75.86,1.538,1.538,0,0,1-.188-.53,1.805,1.805,0,0,1,.86-.75h.562a.439.439,0,0,1,.439.439.439.439,0,0,1-.439.439H.86A1.228,1.228,0,0,0,.3.2C.189.274.128.508.128.86s.061.586.17.659a1.228,1.228,0,0,0,.562.073H3.2c.352,0,.586-.061.659-.17A1.228,1.228,0,0,0,3.935.86c0-.352-.061-.586-.17-.659A1.228,1.228,0,0,0,3.2.128a.439.439,0,0,1-.439-.439A.439.439,0,0,1,3.2-.75a1.805,1.805,0,0,1,1.049.22A1.538,1.538,0,0,1,4.813.86a1.805,1.805,0,0,1-.22,1.049A1.538,1.538,0,0,1,3.2,2.471Z" transform="translate(4.996 1.482)" fill="#525f77"/>
    <path id="Vector-3" data-name="Vector" d="M-.311,3.63A.439.439,0,0,1-.75,3.191,4.271,4.271,0,0,1,.1.18a3.409,3.409,0,0,1,2.494-.93.439.439,0,0,1,.462.415.439.439,0,0,1-.415.462,2.635,2.635,0,0,0-1.9.649A3.559,3.559,0,0,0,.128,3.191.439.439,0,0,1-.311,3.63Z" transform="translate(2.068 2.665)" fill="#525f77"/>
    <path id="Vector-4" data-name="Vector" d="M6.716,10.657H3.2A3.994,3.994,0,0,1,.017,9.629,4.4,4.4,0,0,1-.75,6.7V5.481a.439.439,0,0,1,.439-.439.439.439,0,0,1,.439.439V6.7a3.487,3.487,0,0,0,.55,2.346A3.245,3.245,0,0,0,3.2,9.779H6.716a3.245,3.245,0,0,0,2.524-.728A3.487,3.487,0,0,0,9.791,6.7V3.191A3.561,3.561,0,0,0,9.175.774a2.639,2.639,0,0,0-1.9-.647.439.439,0,0,1-.415-.462.439.439,0,0,1,.462-.415A3.413,3.413,0,0,1,9.82.178a4.272,4.272,0,0,1,.85,3.013V6.7A4.4,4.4,0,0,1,9.9,9.629,3.994,3.994,0,0,1,6.716,10.657Z" transform="translate(2.068 2.665)" fill="#525f77"/>
    <path id="Vector-5" data-name="Vector" d="M0,0H14.054V14.054H0Z" fill="none" opacity="0"/>
  </g>
</svg>
