<svg xmlns="http://www.w3.org/2000/svg" width="14" height="14" viewBox="0 0 14 14">
  <g id="vuesax_broken_task-square" data-name="vuesax/broken/task-square" transform="translate(-492 -316)">
    <g id="task-square" transform="translate(492 316)">
      <path id="Vector" d="M7.273,11.795h-3.5A4.617,4.617,0,0,1,.326,10.719,4.617,4.617,0,0,1-.75,7.273v-1.2a.438.438,0,0,1,.438-.438.438.438,0,0,1,.438.438v1.2A3.84,3.84,0,0,0,.945,10.1a3.84,3.84,0,0,0,2.827.82h3.5A3.84,3.84,0,0,0,10.1,10.1a3.84,3.84,0,0,0,.82-2.827v-3.5A3.84,3.84,0,0,0,10.1.945,3.84,3.84,0,0,0,7.273.125h-3.5A3.84,3.84,0,0,0,.945.945a3.84,3.84,0,0,0-.82,2.827.438.438,0,0,1-.438.438A.438.438,0,0,1-.75,3.772,4.617,4.617,0,0,1,.326.326,4.617,4.617,0,0,1,3.772-.75h3.5A4.617,4.617,0,0,1,10.719.326a4.617,4.617,0,0,1,1.076,3.446v3.5a4.617,4.617,0,0,1-1.076,3.446A4.617,4.617,0,0,1,7.273,11.795Z" transform="translate(1.478 1.478)" fill="#525f77"/>
      <path id="Vector-2" data-name="Vector" d="M0,0H14V14H0Z" fill="none" opacity="0"/>
      <path id="Union_4" data-name="Union 4" d="M-6883.708-3020.216v-.855h-.829a.326.326,0,0,1-.328-.326.328.328,0,0,1,.328-.327h.829v-.805a.326.326,0,0,1,.327-.326.327.327,0,0,1,.327.326v.805h.83a.327.327,0,0,1,.326.327.325.325,0,0,1-.095.231.328.328,0,0,1-.231.095h-.83v.855a.33.33,0,0,1-.1.231.33.33,0,0,1-.231.095A.326.326,0,0,1-6883.708-3020.216Z" transform="translate(6890.381 3028.649)" fill="#525f77"/>
      <text id="_1" data-name="1" transform="translate(11 8.984)" fill="#525f77" font-size="4" font-family="Impact"><tspan x="-1.523" y="0">1</tspan></text>
      <text id="_2" data-name="2" transform="translate(5 8.984)" fill="#525f77" font-size="4" font-family="Impact"><tspan x="-2.008" y="0">2</tspan></text>
    </g>
  </g>
</svg>
