<svg xmlns="http://www.w3.org/2000/svg" width="14" height="14" viewBox="0 0 14 14">
  <g id="vuesax_broken_task-square" data-name="vuesax/broken/task-square" transform="translate(-492 -316)">
    <g id="task-square" transform="translate(492 316)">
      <path id="Vector" d="M2.742.123H-.313A.437.437,0,0,1-.75-.313.437.437,0,0,1-.313-.75H2.742a.437.437,0,0,1,.437.437A.437.437,0,0,1,2.742.123Z" transform="translate(7.534 5.493)" fill="#525f77"/>
      <path id="Vector-2" data-name="Vector" d="M.123,1.433A.435.435,0,0,1-.186,1.3L-.622.868a.437.437,0,0,1,0-.617A.437.437,0,0,1,0,.251L.123.379l1-1a.437.437,0,0,1,.617,0,.437.437,0,0,1,0,.617L.432,1.3A.435.435,0,0,1,.123,1.433Z" transform="translate(4.036 4.619)" fill="#525f77"/>
      <path id="Vector-3" data-name="Vector" d="M2.742.123H-.313A.437.437,0,0,1-.75-.313.437.437,0,0,1-.313-.75H2.742a.437.437,0,0,1,.437.437A.437.437,0,0,1,2.742.123Z" transform="translate(7.534 9.577)" fill="#525f77"/>
      <path id="Vector-4" data-name="Vector" d="M7.273,11.795h-3.5A4.617,4.617,0,0,1,.326,10.719,4.617,4.617,0,0,1-.75,7.273v-1.2a.438.438,0,0,1,.438-.438.438.438,0,0,1,.438.438v1.2A3.84,3.84,0,0,0,.945,10.1a3.84,3.84,0,0,0,2.827.82h3.5A3.84,3.84,0,0,0,10.1,10.1a3.84,3.84,0,0,0,.82-2.827v-3.5A3.84,3.84,0,0,0,10.1.945,3.84,3.84,0,0,0,7.273.125h-3.5A3.84,3.84,0,0,0,.945.945a3.84,3.84,0,0,0-.82,2.827.438.438,0,0,1-.438.438A.438.438,0,0,1-.75,3.772,4.617,4.617,0,0,1,.326.326,4.617,4.617,0,0,1,3.772-.75h3.5A4.617,4.617,0,0,1,10.719.326a4.617,4.617,0,0,1,1.076,3.446v3.5a4.617,4.617,0,0,1-1.076,3.446A4.617,4.617,0,0,1,7.273,11.795Z" transform="translate(1.478 1.478)" fill="#525f77"/>
      <path id="Vector-5" data-name="Vector" d="M0,0H14V14H0Z" fill="none" opacity="0"/>
      <path id="Vector-6" data-name="Vector" d="M1.212,1.539a.326.326,0,0,1-.231-.1L-.654-.192a.327.327,0,0,1,0-.462.327.327,0,0,1,.462,0L1.443.981a.327.327,0,0,1-.231.558Z" transform="translate(4.21 8.861)" fill="#525f77"/>
      <path id="Vector-7" data-name="Vector" d="M-.423,1.539a.326.326,0,0,1-.231-.1.327.327,0,0,1,0-.462L.981-.654a.327.327,0,0,1,.462,0,.327.327,0,0,1,0,.462L-.192,1.443A.326.326,0,0,1-.423,1.539Z" transform="translate(4.192 8.878)" fill="#525f77"/>
    </g>
  </g>
</svg>
