<svg id="youtube" xmlns="http://www.w3.org/2000/svg" width="14.011" height="14.011" viewBox="0 0 14.011 14.011">
  <path id="BG_152" data-name="BG 152" d="M0,0H14.011V14.011H0Z" fill="none" opacity="0.58"/>
  <path id="Vector" d="M8.445,9.467H2.607A3.339,3.339,0,0,1,.181,8.536,3.339,3.339,0,0,1-.75,6.11V5.287a.438.438,0,0,1,.438-.438.438.438,0,0,1,.438.438V6.11A2.325,2.325,0,0,0,2.607,8.591H8.445A2.325,2.325,0,0,0,10.926,6.11v-3.5A2.325,2.325,0,0,0,8.445.126H2.607A2.325,2.325,0,0,0,.126,2.607a.438.438,0,0,1-.438.438A.438.438,0,0,1-.75,2.607,3.339,3.339,0,0,1,.181.181,3.339,3.339,0,0,1,2.607-.75H8.445a3.339,3.339,0,0,1,2.426.931A3.339,3.339,0,0,1,11.8,2.607v3.5a3.339,3.339,0,0,1-.931,2.426A3.339,3.339,0,0,1,8.445,9.467Z" transform="translate(1.48 2.647)" fill="#fff"/>
  <path id="Vector-2" data-name="Vector" d="M.266-.75a1.38,1.38,0,0,1,.709.216L2.417.33a1.166,1.166,0,0,1,.624.977,1.165,1.165,0,0,1-.622.976L.975,3.148a1.378,1.378,0,0,1-.709.216A.951.951,0,0,1-.495,3,1.319,1.319,0,0,1-.75,2.171V.437A1.063,1.063,0,0,1,.266-.75Zm0,3.238A.523.523,0,0,0,.525,2.4l1.442-.864c.146-.089.2-.177.2-.226s-.053-.137-.2-.227L.525.217A.525.525,0,0,0,.266.126.08.08,0,0,0,.191.157a.453.453,0,0,0-.066.28V2.171a.464.464,0,0,0,.066.286A.079.079,0,0,0,.267,2.488Z" transform="translate(5.917 5.699)" fill="#fff"/>
  <path id="Vector-3" data-name="Vector" d="M0,0H14.011V14.011H0Z" fill="none" opacity="0"/>
</svg>
